<?xml version="1.0" standalone="no"?>
 <!DOCTYPE svg PUBLIC "-//W3C//DTD SVG 1.1//EN" 
 "http://www.w3.org/Graphics/SVG/1.1/DTD/svg11.dtd"> 
<svg
  xmlns:svg="http://www.w3.org/2000/svg"
  xmlns="http://www.w3.org/2000/svg"
  xmlns:xlink="http://www.w3.org/1999/xlink"
  version="1.1"
  width="10.068560cm" height="6.604000cm" viewBox="0 0 100685600 66040000">
<title>SVG Picture created as pico-color-picker-F_Fab.svg date 2022/09/14 17:13:42 </title>
  <desc>Picture generated by PCBNEW </desc>
<g style="fill:#000000; fill-opacity:1.000000;stroke:#000000; stroke-opacity:1.000000;
stroke-linecap:round; stroke-linejoin:round;"
 transform="translate(0 0) scale(1 1)">
</g>
<g style="fill:#000000; fill-opacity:0.0; 
stroke:#000000; stroke-width:0.000000; stroke-opacity:1; 
stroke-linecap:round; stroke-linejoin:round;">
</g>
<g style="fill:#000000; fill-opacity:0.0; 
stroke:#000000; stroke-width:150000.000000; stroke-opacity:1; 
stroke-linecap:round; stroke-linejoin:round;">
<g transform="rotate(-90.000000 33400000.000000 51112500.000000)">
<text x="33400000.000000" y="51612500.000000"
textLength="2813905.000000" font-size="1333333.000000" lengthAdjust="spacingAndGlyphs"
text-anchor="middle" opacity="0">Red</text>
</g>
<g class="stroked-text"><desc>Red</desc>
<path d="M33852380 51683928
L33376190 52017261
" />
<path d="M33852380 52255357
L32852380 52255357
L32852380 51874404
L32900000 51779166
L32947619 51731547
L33042857 51683928
L33185714 51683928
L33280952 51731547
L33328571 51779166
L33376190 51874404
L33376190 52255357
" />
<path d="M33804761 50874404
L33852380 50969642
L33852380 51160119
L33804761 51255357
L33709523 51302976
L33328571 51302976
L33233333 51255357
L33185714 51160119
L33185714 50969642
L33233333 50874404
L33328571 50826785
L33423809 50826785
L33519047 51302976
" />
<path d="M33852380 49969642
L32852380 49969642
" />
<path d="M33804761 49969642
L33852380 50064880
L33852380 50255357
L33804761 50350595
L33757142 50398214
L33661904 50445833
L33376190 50445833
L33280952 50398214
L33233333 50350595
L33185714 50255357
L33185714 50064880
L33233333 49969642
" />
</g><g transform="rotate(-90.000000 37500000.000000 54712500.000000)">
<text x="37500000.000000" y="55212500.000000"
textLength="3242619.000000" font-size="1333333.000000" lengthAdjust="spacingAndGlyphs"
text-anchor="middle" opacity="0">SW3</text>
</g>
<g class="stroked-text"><desc>SW3</desc>
<path d="M37904761 56045833
L37952380 55902976
L37952380 55664880
L37904761 55569642
L37857142 55522023
L37761904 55474404
L37666666 55474404
L37571428 55522023
L37523809 55569642
L37476190 55664880
L37428571 55855357
L37380952 55950595
L37333333 55998214
L37238095 56045833
L37142857 56045833
L37047619 55998214
L37000000 55950595
L36952380 55855357
L36952380 55617261
L37000000 55474404
" />
<path d="M36952380 55141071
L37952380 54902976
L37238095 54712500
L37952380 54522023
L36952380 54283928
" />
<path d="M36952380 53998214
L36952380 53379166
L37333333 53712500
L37333333 53569642
L37380952 53474404
L37428571 53426785
L37523809 53379166
L37761904 53379166
L37857142 53426785
L37904761 53474404
L37952380 53569642
L37952380 53855357
L37904761 53950595
L37857142 53998214
" />
</g><g transform="rotate(-90.000000 77300000.000000 51162500.000000)">
<text x="77300000.000000" y="51662500.000000"
textLength="3480714.000000" font-size="1333333.000000" lengthAdjust="spacingAndGlyphs"
text-anchor="middle" opacity="0">Blue</text>
</g>
<g class="stroked-text"><desc>Blue</desc>
<path d="M77228571 52233928
L77276190 52091071
L77323809 52043452
L77419047 51995833
L77561904 51995833
L77657142 52043452
L77704761 52091071
L77752380 52186309
L77752380 52567261
L76752380 52567261
L76752380 52233928
L76800000 52138690
L76847619 52091071
L76942857 52043452
L77038095 52043452
L77133333 52091071
L77180952 52138690
L77228571 52233928
L77228571 52567261
" />
<path d="M77752380 51424404
L77704761 51519642
L77609523 51567261
L76752380 51567261
" />
<path d="M77085714 50614880
L77752380 50614880
" />
<path d="M77085714 51043452
L77609523 51043452
L77704761 50995833
L77752380 50900595
L77752380 50757738
L77704761 50662500
L77657142 50614880
" />
<path d="M77704761 49757738
L77752380 49852976
L77752380 50043452
L77704761 50138690
L77609523 50186309
L77228571 50186309
L77133333 50138690
L77085714 50043452
L77085714 49852976
L77133333 49757738
L77228571 49710119
L77323809 49710119
L77419047 50186309
" />
</g><g transform="rotate(-90.000000 81400000.000000 54762500.000000)">
<text x="81400000.000000" y="55262500.000000"
textLength="3242619.000000" font-size="1333333.000000" lengthAdjust="spacingAndGlyphs"
text-anchor="middle" opacity="0">SW1</text>
</g>
<g class="stroked-text"><desc>SW1</desc>
<path d="M81804761 56095833
L81852380 55952976
L81852380 55714880
L81804761 55619642
L81757142 55572023
L81661904 55524404
L81566666 55524404
L81471428 55572023
L81423809 55619642
L81376190 55714880
L81328571 55905357
L81280952 56000595
L81233333 56048214
L81138095 56095833
L81042857 56095833
L80947619 56048214
L80900000 56000595
L80852380 55905357
L80852380 55667261
L80900000 55524404
" />
<path d="M80852380 55191071
L81852380 54952976
L81138095 54762500
L81852380 54572023
L80852380 54333928
" />
<path d="M81852380 53429166
L81852380 54000595
" />
<path d="M81852380 53714880
L80852380 53714880
L80995238 53810119
L81090476 53905357
L81138095 54000595
" />
</g><text x="52900000.000000" y="27089500.000000"
textLength="10861667.000000" font-size="1333333.000000" lengthAdjust="spacingAndGlyphs"
text-anchor="middle" opacity="0">AdaFruit_4440</text>
<g class="stroked-text"><desc>AdaFruit_4440</desc>
<path d="M47757142 26756166
L48233333 26756166
" />
<path d="M47661904 27041880
L47995238 26041880
L48328571 27041880
" />
<path d="M49090476 27041880
L49090476 26041880
" />
<path d="M49090476 26994261
L48995238 27041880
L48804761 27041880
L48709523 26994261
L48661904 26946642
L48614285 26851404
L48614285 26565690
L48661904 26470452
L48709523 26422833
L48804761 26375214
L48995238 26375214
L49090476 26422833
" />
<path d="M49995238 27041880
L49995238 26518071
L49947619 26422833
L49852380 26375214
L49661904 26375214
L49566666 26422833
" />
<path d="M49995238 26994261
L49900000 27041880
L49661904 27041880
L49566666 26994261
L49519047 26899023
L49519047 26803785
L49566666 26708547
L49661904 26660928
L49900000 26660928
L49995238 26613309
" />
<path d="M50804761 26518071
L50471428 26518071
" />
<path d="M50471428 27041880
L50471428 26041880
L50947619 26041880
" />
<path d="M51328571 27041880
L51328571 26375214
" />
<path d="M51328571 26565690
L51376190 26470452
L51423809 26422833
L51519047 26375214
L51614285 26375214
" />
<path d="M52376190 26375214
L52376190 27041880
" />
<path d="M51947619 26375214
L51947619 26899023
L51995238 26994261
L52090476 27041880
L52233333 27041880
L52328571 26994261
L52376190 26946642
" />
<path d="M52852380 27041880
L52852380 26375214
" />
<path d="M52852380 26041880
L52804761 26089500
L52852380 26137119
L52900000 26089500
L52852380 26041880
L52852380 26137119
" />
<path d="M53185714 26375214
L53566666 26375214
" />
<path d="M53328571 26041880
L53328571 26899023
L53376190 26994261
L53471428 27041880
L53566666 27041880
" />
<path d="M53661904 27137119
L54423809 27137119
" />
<path d="M55090476 26375214
L55090476 27041880
" />
<path d="M54852380 25994261
L54614285 26708547
L55233333 26708547
" />
<path d="M56042857 26375214
L56042857 27041880
" />
<path d="M55804761 25994261
L55566666 26708547
L56185714 26708547
" />
<path d="M56995238 26375214
L56995238 27041880
" />
<path d="M56757142 25994261
L56519047 26708547
L57138095 26708547
" />
<path d="M57709523 26041880
L57804761 26041880
L57900000 26089500
L57947619 26137119
L57995238 26232357
L58042857 26422833
L58042857 26660928
L57995238 26851404
L57947619 26946642
L57900000 26994261
L57804761 27041880
L57709523 27041880
L57614285 26994261
L57566666 26946642
L57519047 26851404
L57471428 26660928
L57471428 26422833
L57519047 26232357
L57566666 26137119
L57614285 26089500
L57709523 26041880
" />
</g><text x="36390000.000000" y="18540500.000000"
textLength="2195000.000000" font-size="1333333.000000" lengthAdjust="spacingAndGlyphs"
text-anchor="middle" opacity="0">U2</text>
<g class="stroked-text"><desc>U2</desc>
<path d="M35628095 17492880
L35628095 18302404
L35675714 18397642
L35723333 18445261
L35818571 18492880
L36009047 18492880
L36104285 18445261
L36151904 18397642
L36199523 18302404
L36199523 17492880
" />
<path d="M36628095 17588119
L36675714 17540500
L36770952 17492880
L37009047 17492880
L37104285 17540500
L37151904 17588119
L37199523 17683357
L37199523 17778595
L37151904 17921452
L36580476 18492880
L37199523 18492880
" />
</g><g transform="rotate(-90.000000 77950000.000000 7362500.000000)">
<text x="77950000.000000" y="7862500.000000"
textLength="9290238.000000" font-size="1333333.000000" lengthAdjust="spacingAndGlyphs"
text-anchor="middle" opacity="0">Conn_01x04</text>
</g>
<g class="stroked-text"><desc>Conn_01x04</desc>
<path d="M78307142 11100595
L78354761 11148214
L78402380 11291071
L78402380 11386309
L78354761 11529166
L78259523 11624404
L78164285 11672023
L77973809 11719642
L77830952 11719642
L77640476 11672023
L77545238 11624404
L77450000 11529166
L77402380 11386309
L77402380 11291071
L77450000 11148214
L77497619 11100595
" />
<path d="M78402380 10529166
L78354761 10624404
L78307142 10672023
L78211904 10719642
L77926190 10719642
L77830952 10672023
L77783333 10624404
L77735714 10529166
L77735714 10386309
L77783333 10291071
L77830952 10243452
L77926190 10195833
L78211904 10195833
L78307142 10243452
L78354761 10291071
L78402380 10386309
L78402380 10529166
" />
<path d="M77735714 9767261
L78402380 9767261
" />
<path d="M77830952 9767261
L77783333 9719642
L77735714 9624404
L77735714 9481547
L77783333 9386309
L77878571 9338690
L78402380 9338690
" />
<path d="M77735714 8862500
L78402380 8862500
" />
<path d="M77830952 8862500
L77783333 8814880
L77735714 8719642
L77735714 8576785
L77783333 8481547
L77878571 8433928
L78402380 8433928
" />
<path d="M78497619 8195833
L78497619 7433928
" />
<path d="M77402380 7005357
L77402380 6910119
L77450000 6814880
L77497619 6767261
L77592857 6719642
L77783333 6672023
L78021428 6672023
L78211904 6719642
L78307142 6767261
L78354761 6814880
L78402380 6910119
L78402380 7005357
L78354761 7100595
L78307142 7148214
L78211904 7195833
L78021428 7243452
L77783333 7243452
L77592857 7195833
L77497619 7148214
L77450000 7100595
L77402380 7005357
" />
<path d="M78402380 5719642
L78402380 6291071
" />
<path d="M78402380 6005357
L77402380 6005357
L77545238 6100595
L77640476 6195833
L77688095 6291071
" />
<path d="M78402380 5386309
L77735714 4862500
" />
<path d="M77735714 5386309
L78402380 4862500
" />
<path d="M77402380 4291071
L77402380 4195833
L77450000 4100595
L77497619 4052976
L77592857 4005357
L77783333 3957738
L78021428 3957738
L78211904 4005357
L78307142 4052976
L78354761 4100595
L78402380 4195833
L78402380 4291071
L78354761 4386309
L78307142 4433928
L78211904 4481547
L78021428 4529166
L77783333 4529166
L77592857 4481547
L77497619 4433928
L77450000 4386309
L77402380 4291071
" />
<path d="M77735714 3100595
L78402380 3100595
" />
<path d="M77354761 3338690
L78069047 3576785
L78069047 2957738
" />
</g><text x="84450000.000000" y="7862500.000000"
textLength="1909286.000000" font-size="1333333.000000" lengthAdjust="spacingAndGlyphs"
text-anchor="middle" opacity="0">J1</text>
<g class="stroked-text"><desc>J1</desc>
<path d="M84116666 6814880
L84116666 7529166
L84069047 7672023
L83973809 7767261
L83830952 7814880
L83735714 7814880
" />
<path d="M85116666 7814880
L84545238 7814880
" />
<path d="M84830952 7814880
L84830952 6814880
L84735714 6957738
L84640476 7052976
L84545238 7100595
" />
</g><g transform="rotate(-90.000000 55300000.000000 51162500.000000)">
<text x="55300000.000000" y="51662500.000000"
textLength="4433095.000000" font-size="1333333.000000" lengthAdjust="spacingAndGlyphs"
text-anchor="middle" opacity="0">Green</text>
</g>
<g class="stroked-text"><desc>Green</desc>
<path d="M54800000 52519642
L54752380 52614880
L54752380 52757738
L54800000 52900595
L54895238 52995833
L54990476 53043452
L55180952 53091071
L55323809 53091071
L55514285 53043452
L55609523 52995833
L55704761 52900595
L55752380 52757738
L55752380 52662500
L55704761 52519642
L55657142 52472023
L55323809 52472023
L55323809 52662500
" />
<path d="M55752380 52043452
L55085714 52043452
" />
<path d="M55276190 52043452
L55180952 51995833
L55133333 51948214
L55085714 51852976
L55085714 51757738
" />
<path d="M55704761 51043452
L55752380 51138690
L55752380 51329166
L55704761 51424404
L55609523 51472023
L55228571 51472023
L55133333 51424404
L55085714 51329166
L55085714 51138690
L55133333 51043452
L55228571 50995833
L55323809 50995833
L55419047 51472023
" />
<path d="M55704761 50186309
L55752380 50281547
L55752380 50472023
L55704761 50567261
L55609523 50614880
L55228571 50614880
L55133333 50567261
L55085714 50472023
L55085714 50281547
L55133333 50186309
L55228571 50138690
L55323809 50138690
L55419047 50614880
" />
<path d="M55085714 49710119
L55752380 49710119
" />
<path d="M55180952 49710119
L55133333 49662500
L55085714 49567261
L55085714 49424404
L55133333 49329166
L55228571 49281547
L55752380 49281547
" />
</g><g transform="rotate(-90.000000 59400000.000000 54762500.000000)">
<text x="59400000.000000" y="55262500.000000"
textLength="3242619.000000" font-size="1333333.000000" lengthAdjust="spacingAndGlyphs"
text-anchor="middle" opacity="0">SW2</text>
</g>
<g class="stroked-text"><desc>SW2</desc>
<path d="M59804761 56095833
L59852380 55952976
L59852380 55714880
L59804761 55619642
L59757142 55572023
L59661904 55524404
L59566666 55524404
L59471428 55572023
L59423809 55619642
L59376190 55714880
L59328571 55905357
L59280952 56000595
L59233333 56048214
L59138095 56095833
L59042857 56095833
L58947619 56048214
L58900000 56000595
L58852380 55905357
L58852380 55667261
L58900000 55524404
" />
<path d="M58852380 55191071
L59852380 54952976
L59138095 54762500
L59852380 54572023
L58852380 54333928
" />
<path d="M58947619 54000595
L58900000 53952976
L58852380 53857738
L58852380 53619642
L58900000 53524404
L58947619 53476785
L59042857 53429166
L59138095 53429166
L59280952 53476785
L59852380 54048214
L59852380 53429166
" />
</g><text x="41100000.000000" y="13462500.000000"
textLength="6099762.000000" font-size="1333333.000000" lengthAdjust="spacingAndGlyphs"
text-anchor="middle" opacity="0">WS2812</text>
<g class="stroked-text"><desc>WS2812</desc>
<path d="M38290476 12414880
L38528571 13414880
L38719047 12700595
L38909523 13414880
L39147619 12414880
" />
<path d="M39480952 13367261
L39623809 13414880
L39861904 13414880
L39957142 13367261
L40004761 13319642
L40052380 13224404
L40052380 13129166
L40004761 13033928
L39957142 12986309
L39861904 12938690
L39671428 12891071
L39576190 12843452
L39528571 12795833
L39480952 12700595
L39480952 12605357
L39528571 12510119
L39576190 12462500
L39671428 12414880
L39909523 12414880
L40052380 12462500
" />
<path d="M40433333 12510119
L40480952 12462500
L40576190 12414880
L40814285 12414880
L40909523 12462500
L40957142 12510119
L41004761 12605357
L41004761 12700595
L40957142 12843452
L40385714 13414880
L41004761 13414880
" />
<path d="M41576190 12843452
L41480952 12795833
L41433333 12748214
L41385714 12652976
L41385714 12605357
L41433333 12510119
L41480952 12462500
L41576190 12414880
L41766666 12414880
L41861904 12462500
L41909523 12510119
L41957142 12605357
L41957142 12652976
L41909523 12748214
L41861904 12795833
L41766666 12843452
L41576190 12843452
L41480952 12891071
L41433333 12938690
L41385714 13033928
L41385714 13224404
L41433333 13319642
L41480952 13367261
L41576190 13414880
L41766666 13414880
L41861904 13367261
L41909523 13319642
L41957142 13224404
L41957142 13033928
L41909523 12938690
L41861904 12891071
L41766666 12843452
" />
<path d="M42909523 13414880
L42338095 13414880
" />
<path d="M42623809 13414880
L42623809 12414880
L42528571 12557738
L42433333 12652976
L42338095 12700595
" />
<path d="M43290476 12510119
L43338095 12462500
L43433333 12414880
L43671428 12414880
L43766666 12462500
L43814285 12510119
L43861904 12605357
L43861904 12700595
L43814285 12843452
L43242857 13414880
L43861904 13414880
" />
</g><text x="41100000.000000" y="9362500.000000"
textLength="1756905.000000" font-size="1066666.000000" lengthAdjust="spacingAndGlyphs"
text-anchor="middle" opacity="0">D3</text>
<g class="stroked-text"><desc>D3</desc>
<path d="M40509523 9324404
L40509523 8524404
L40700000 8524404
L40814285 8562500
L40890476 8638690
L40928571 8714880
L40966666 8867261
L40966666 8981547
L40928571 9133928
L40890476 9210119
L40814285 9286309
L40700000 9324404
L40509523 9324404
" />
<path d="M41233333 8524404
L41728571 8524404
L41461904 8829166
L41576190 8829166
L41652380 8867261
L41690476 8905357
L41728571 8981547
L41728571 9172023
L41690476 9248214
L41652380 9286309
L41576190 9324404
L41347619 9324404
L41271428 9286309
L41233333 9248214
" />
</g><text x="84780000.000000" y="39392500.000000"
textLength="5052143.000000" font-size="1333333.000000" lengthAdjust="spacingAndGlyphs"
text-anchor="middle" opacity="0">Button</text>
<g class="stroked-text"><desc>Button</desc>
<path d="M82922857 38821071
L83065714 38868690
L83113333 38916309
L83160952 39011547
L83160952 39154404
L83113333 39249642
L83065714 39297261
L82970476 39344880
L82589523 39344880
L82589523 38344880
L82922857 38344880
L83018095 38392500
L83065714 38440119
L83113333 38535357
L83113333 38630595
L83065714 38725833
L83018095 38773452
L82922857 38821071
L82589523 38821071
" />
<path d="M84018095 38678214
L84018095 39344880
" />
<path d="M83589523 38678214
L83589523 39202023
L83637142 39297261
L83732380 39344880
L83875238 39344880
L83970476 39297261
L84018095 39249642
" />
<path d="M84351428 38678214
L84732380 38678214
" />
<path d="M84494285 38344880
L84494285 39202023
L84541904 39297261
L84637142 39344880
L84732380 39344880
" />
<path d="M84922857 38678214
L85303809 38678214
" />
<path d="M85065714 38344880
L85065714 39202023
L85113333 39297261
L85208571 39344880
L85303809 39344880
" />
<path d="M85780000 39344880
L85684761 39297261
L85637142 39249642
L85589523 39154404
L85589523 38868690
L85637142 38773452
L85684761 38725833
L85780000 38678214
L85922857 38678214
L86018095 38725833
L86065714 38773452
L86113333 38868690
L86113333 39154404
L86065714 39249642
L86018095 39297261
L85922857 39344880
L85780000 39344880
" />
<path d="M86541904 38678214
L86541904 39344880
" />
<path d="M86541904 38773452
L86589523 38725833
L86684761 38678214
L86827619 38678214
L86922857 38725833
L86970476 38821071
L86970476 39344880
" />
</g><text x="84510000.000000" y="32002500.000000"
textLength="3242619.000000" font-size="1333333.000000" lengthAdjust="spacingAndGlyphs"
text-anchor="middle" opacity="0">SW4</text>
<g class="stroked-text"><desc>SW4</desc>
<path d="M83176666 31907261
L83319523 31954880
L83557619 31954880
L83652857 31907261
L83700476 31859642
L83748095 31764404
L83748095 31669166
L83700476 31573928
L83652857 31526309
L83557619 31478690
L83367142 31431071
L83271904 31383452
L83224285 31335833
L83176666 31240595
L83176666 31145357
L83224285 31050119
L83271904 31002500
L83367142 30954880
L83605238 30954880
L83748095 31002500
" />
<path d="M84081428 30954880
L84319523 31954880
L84510000 31240595
L84700476 31954880
L84938571 30954880
" />
<path d="M85748095 31288214
L85748095 31954880
" />
<path d="M85510000 30907261
L85271904 31621547
L85890952 31621547
" />
</g><text x="17495000.000000" y="33776500.000000"
textLength="3433095.000000" font-size="1333333.000000" lengthAdjust="spacingAndGlyphs"
text-anchor="middle" opacity="0">Pico</text>
<g class="stroked-text"><desc>Pico</desc>
<path d="M16114047 33728880
L16114047 32728880
L16495000 32728880
L16590238 32776500
L16637857 32824119
L16685476 32919357
L16685476 33062214
L16637857 33157452
L16590238 33205071
L16495000 33252690
L16114047 33252690
" />
<path d="M17114047 33728880
L17114047 33062214
" />
<path d="M17114047 32728880
L17066428 32776500
L17114047 32824119
L17161666 32776500
L17114047 32728880
L17114047 32824119
" />
<path d="M18018809 33681261
L17923571 33728880
L17733095 33728880
L17637857 33681261
L17590238 33633642
L17542619 33538404
L17542619 33252690
L17590238 33157452
L17637857 33109833
L17733095 33062214
L17923571 33062214
L18018809 33109833
" />
<path d="M18590238 33728880
L18495000 33681261
L18447380 33633642
L18399761 33538404
L18399761 33252690
L18447380 33157452
L18495000 33109833
L18590238 33062214
L18733095 33062214
L18828333 33109833
L18875952 33157452
L18923571 33252690
L18923571 33538404
L18875952 33633642
L18828333 33681261
L18733095 33728880
L18590238 33728880
" />
</g><text x="17495000.000000" y="31617500.000000"
textLength="2195000.000000" font-size="1333333.000000" lengthAdjust="spacingAndGlyphs"
text-anchor="middle" opacity="0">U1</text>
<g class="stroked-text"><desc>U1</desc>
<path d="M16733095 30569880
L16733095 31379404
L16780714 31474642
L16828333 31522261
L16923571 31569880
L17114047 31569880
L17209285 31522261
L17256904 31474642
L17304523 31379404
L17304523 30569880
" />
<path d="M18304523 31569880
L17733095 31569880
" />
<path d="M18018809 31569880
L18018809 30569880
L17923571 30712738
L17828333 30807976
L17733095 30855595
" />
</g><text x="64400000.000000" y="13462500.000000"
textLength="6099762.000000" font-size="1333333.000000" lengthAdjust="spacingAndGlyphs"
text-anchor="middle" opacity="0">WS2812</text>
<g class="stroked-text"><desc>WS2812</desc>
<path d="M61590476 12414880
L61828571 13414880
L62019047 12700595
L62209523 13414880
L62447619 12414880
" />
<path d="M62780952 13367261
L62923809 13414880
L63161904 13414880
L63257142 13367261
L63304761 13319642
L63352380 13224404
L63352380 13129166
L63304761 13033928
L63257142 12986309
L63161904 12938690
L62971428 12891071
L62876190 12843452
L62828571 12795833
L62780952 12700595
L62780952 12605357
L62828571 12510119
L62876190 12462500
L62971428 12414880
L63209523 12414880
L63352380 12462500
" />
<path d="M63733333 12510119
L63780952 12462500
L63876190 12414880
L64114285 12414880
L64209523 12462500
L64257142 12510119
L64304761 12605357
L64304761 12700595
L64257142 12843452
L63685714 13414880
L64304761 13414880
" />
<path d="M64876190 12843452
L64780952 12795833
L64733333 12748214
L64685714 12652976
L64685714 12605357
L64733333 12510119
L64780952 12462500
L64876190 12414880
L65066666 12414880
L65161904 12462500
L65209523 12510119
L65257142 12605357
L65257142 12652976
L65209523 12748214
L65161904 12795833
L65066666 12843452
L64876190 12843452
L64780952 12891071
L64733333 12938690
L64685714 13033928
L64685714 13224404
L64733333 13319642
L64780952 13367261
L64876190 13414880
L65066666 13414880
L65161904 13367261
L65209523 13319642
L65257142 13224404
L65257142 13033928
L65209523 12938690
L65161904 12891071
L65066666 12843452
" />
<path d="M66209523 13414880
L65638095 13414880
" />
<path d="M65923809 13414880
L65923809 12414880
L65828571 12557738
L65733333 12652976
L65638095 12700595
" />
<path d="M66590476 12510119
L66638095 12462500
L66733333 12414880
L66971428 12414880
L67066666 12462500
L67114285 12510119
L67161904 12605357
L67161904 12700595
L67114285 12843452
L66542857 13414880
L67161904 13414880
" />
</g><text x="64500000.000000" y="9462500.000000"
textLength="1756905.000000" font-size="1066666.000000" lengthAdjust="spacingAndGlyphs"
text-anchor="middle" opacity="0">D1</text>
<g class="stroked-text"><desc>D1</desc>
<path d="M63909523 9424404
L63909523 8624404
L64100000 8624404
L64214285 8662500
L64290476 8738690
L64328571 8814880
L64366666 8967261
L64366666 9081547
L64328571 9233928
L64290476 9310119
L64214285 9386309
L64100000 9424404
L63909523 9424404
" />
<path d="M65128571 9424404
L64671428 9424404
" />
<path d="M64900000 9424404
L64900000 8624404
L64823809 8738690
L64747619 8814880
L64671428 8852976
" />
</g><text x="84780000.000000" y="24792500.000000"
textLength="5052143.000000" font-size="1333333.000000" lengthAdjust="spacingAndGlyphs"
text-anchor="middle" opacity="0">Button</text>
<g class="stroked-text"><desc>Button</desc>
<path d="M82922857 24221071
L83065714 24268690
L83113333 24316309
L83160952 24411547
L83160952 24554404
L83113333 24649642
L83065714 24697261
L82970476 24744880
L82589523 24744880
L82589523 23744880
L82922857 23744880
L83018095 23792500
L83065714 23840119
L83113333 23935357
L83113333 24030595
L83065714 24125833
L83018095 24173452
L82922857 24221071
L82589523 24221071
" />
<path d="M84018095 24078214
L84018095 24744880
" />
<path d="M83589523 24078214
L83589523 24602023
L83637142 24697261
L83732380 24744880
L83875238 24744880
L83970476 24697261
L84018095 24649642
" />
<path d="M84351428 24078214
L84732380 24078214
" />
<path d="M84494285 23744880
L84494285 24602023
L84541904 24697261
L84637142 24744880
L84732380 24744880
" />
<path d="M84922857 24078214
L85303809 24078214
" />
<path d="M85065714 23744880
L85065714 24602023
L85113333 24697261
L85208571 24744880
L85303809 24744880
" />
<path d="M85780000 24744880
L85684761 24697261
L85637142 24649642
L85589523 24554404
L85589523 24268690
L85637142 24173452
L85684761 24125833
L85780000 24078214
L85922857 24078214
L86018095 24125833
L86065714 24173452
L86113333 24268690
L86113333 24554404
L86065714 24649642
L86018095 24697261
L85922857 24744880
L85780000 24744880
" />
<path d="M86541904 24078214
L86541904 24744880
" />
<path d="M86541904 24173452
L86589523 24125833
L86684761 24078214
L86827619 24078214
L86922857 24125833
L86970476 24221071
L86970476 24744880
" />
</g><text x="84510000.000000" y="17402500.000000"
textLength="3242619.000000" font-size="1333333.000000" lengthAdjust="spacingAndGlyphs"
text-anchor="middle" opacity="0">SW5</text>
<g class="stroked-text"><desc>SW5</desc>
<path d="M83176666 17307261
L83319523 17354880
L83557619 17354880
L83652857 17307261
L83700476 17259642
L83748095 17164404
L83748095 17069166
L83700476 16973928
L83652857 16926309
L83557619 16878690
L83367142 16831071
L83271904 16783452
L83224285 16735833
L83176666 16640595
L83176666 16545357
L83224285 16450119
L83271904 16402500
L83367142 16354880
L83605238 16354880
L83748095 16402500
" />
<path d="M84081428 16354880
L84319523 17354880
L84510000 16640595
L84700476 17354880
L84938571 16354880
" />
<path d="M85795714 16354880
L85319523 16354880
L85271904 16831071
L85319523 16783452
L85414761 16735833
L85652857 16735833
L85748095 16783452
L85795714 16831071
L85843333 16926309
L85843333 17164404
L85795714 17259642
L85748095 17307261
L85652857 17354880
L85414761 17354880
L85319523 17307261
L85271904 17259642
" />
</g><text x="52600000.000000" y="13462500.000000"
textLength="6099762.000000" font-size="1333333.000000" lengthAdjust="spacingAndGlyphs"
text-anchor="middle" opacity="0">WS2812</text>
<g class="stroked-text"><desc>WS2812</desc>
<path d="M49790476 12414880
L50028571 13414880
L50219047 12700595
L50409523 13414880
L50647619 12414880
" />
<path d="M50980952 13367261
L51123809 13414880
L51361904 13414880
L51457142 13367261
L51504761 13319642
L51552380 13224404
L51552380 13129166
L51504761 13033928
L51457142 12986309
L51361904 12938690
L51171428 12891071
L51076190 12843452
L51028571 12795833
L50980952 12700595
L50980952 12605357
L51028571 12510119
L51076190 12462500
L51171428 12414880
L51409523 12414880
L51552380 12462500
" />
<path d="M51933333 12510119
L51980952 12462500
L52076190 12414880
L52314285 12414880
L52409523 12462500
L52457142 12510119
L52504761 12605357
L52504761 12700595
L52457142 12843452
L51885714 13414880
L52504761 13414880
" />
<path d="M53076190 12843452
L52980952 12795833
L52933333 12748214
L52885714 12652976
L52885714 12605357
L52933333 12510119
L52980952 12462500
L53076190 12414880
L53266666 12414880
L53361904 12462500
L53409523 12510119
L53457142 12605357
L53457142 12652976
L53409523 12748214
L53361904 12795833
L53266666 12843452
L53076190 12843452
L52980952 12891071
L52933333 12938690
L52885714 13033928
L52885714 13224404
L52933333 13319642
L52980952 13367261
L53076190 13414880
L53266666 13414880
L53361904 13367261
L53409523 13319642
L53457142 13224404
L53457142 13033928
L53409523 12938690
L53361904 12891071
L53266666 12843452
" />
<path d="M54409523 13414880
L53838095 13414880
" />
<path d="M54123809 13414880
L54123809 12414880
L54028571 12557738
L53933333 12652976
L53838095 12700595
" />
<path d="M54790476 12510119
L54838095 12462500
L54933333 12414880
L55171428 12414880
L55266666 12462500
L55314285 12510119
L55361904 12605357
L55361904 12700595
L55314285 12843452
L54742857 13414880
L55361904 13414880
" />
</g><text x="52600000.000000" y="9362500.000000"
textLength="1756905.000000" font-size="1066666.000000" lengthAdjust="spacingAndGlyphs"
text-anchor="middle" opacity="0">D2</text>
<g class="stroked-text"><desc>D2</desc>
<path d="M52009523 9324404
L52009523 8524404
L52200000 8524404
L52314285 8562500
L52390476 8638690
L52428571 8714880
L52466666 8867261
L52466666 8981547
L52428571 9133928
L52390476 9210119
L52314285 9286309
L52200000 9324404
L52009523 9324404
" />
<path d="M52771428 8600595
L52809523 8562500
L52885714 8524404
L53076190 8524404
L53152380 8562500
L53190476 8600595
L53228571 8676785
L53228571 8752976
L53190476 8867261
L52733333 9324404
L53228571 9324404
" />
</g></g>
<g style="fill:#000000; fill-opacity:0.0; 
stroke:#000000; stroke-width:120000.000000; stroke-opacity:1; 
stroke-linecap:round; stroke-linejoin:round;">
<path d="M35500000 45112500
L46000000 45112500
" />
<path d="M35500000 57112500
L35500000 45112500
" />
<path d="M44300000 51112500
L38300000 51112500
" />
<path d="M46000000 45112500
L47100000 46112500
" />
<path d="M41300000 48112500
L41300000 54112500
" />
<path d="M47100000 46112500
L47100000 57112500
" />
<path d="M47100000 57112500
L35500000 57112500
" />
<circle cx="41300000.000000" cy="51112500.000000" r="3000000.000000" /> 
<path d="M89900000 45162500
L91000000 46162500
" />
<path d="M79400000 57162500
L79400000 45162500
" />
<path d="M79400000 45162500
L89900000 45162500
" />
<path d="M91000000 46162500
L91000000 57162500
" />
<path d="M91000000 57162500
L79400000 57162500
" />
<path d="M85200000 48162500
L85200000 54162500
" />
<path d="M88200000 51162500
L82200000 51162500
" />
<circle cx="85200000.000000" cy="51162500.000000" r="3000000.000000" /> 
</g>
<g style="fill:#000000; fill-opacity:0.0; 
stroke:#000000; stroke-width:100000.000000; stroke-opacity:1; 
stroke-linecap:round; stroke-linejoin:round;">
<path d="M89450000 6112500
L89450000 7987500
" />
<path d="M79450000 6112500
L89450000 6112500
" />
<path d="M88825000 8612500
L79450000 8612500
" />
<path d="M89450000 7987500
L88825000 8612500
" />
<path d="M79450000 8612500
L79450000 6112500
" />
</g>
<g style="fill:#000000; fill-opacity:0.0; 
stroke:#000000; stroke-width:120000.000000; stroke-opacity:1; 
stroke-linecap:round; stroke-linejoin:round;">
<path d="M69000000 57162500
L57400000 57162500
" />
<path d="M67900000 45162500
L69000000 46162500
" />
<path d="M63200000 48162500
L63200000 54162500
" />
<path d="M57400000 45162500
L67900000 45162500
" />
<path d="M57400000 57162500
L57400000 45162500
" />
<path d="M66200000 51162500
L60200000 51162500
" />
<path d="M69000000 46162500
L69000000 57162500
" />
<circle cx="63200000.000000" cy="51162500.000000" r="3000000.000000" /> 
</g>
<g style="fill:#000000; fill-opacity:0.0; 
stroke:#000000; stroke-width:100000.000000; stroke-opacity:1; 
stroke-linecap:round; stroke-linejoin:round;">
<path d="M43600000 11462500
L38600000 11462500
" />
<path d="M43600000 6462500
L43600000 11462500
" />
<path d="M38600000 6462500
L43600000 6462500
" />
<path d="M38600000 7462500
L39600000 6462500
" />
<path d="M38600000 11462500
L38600000 6462500
" />
<circle cx="41100000.000000" cy="8962500.000000" r="2000000.000000" /> 
<path d="M78410000 25462500
L90410000 25462500
" />
<path d="M90410000 25462500
L90410000 37462500
" />
<path d="M78410000 25462500
L78410000 37462500
" />
<path d="M78410000 37462500
L90410000 37462500
" />
</g>
<g style="fill:#000000; fill-opacity:0.0; 
stroke:#000000; stroke-width:120000.000000; stroke-opacity:1; 
stroke-linecap:round; stroke-linejoin:round;">
<path d="M27995000 56617500
L6995000 56617500
" />
<path d="M27995000 5617500
L27995000 56617500
" />
<path d="M6995000 5617500
L27995000 5617500
" />
<path d="M6995000 6917500
L8295000 5617500
" />
<path d="M6995000 56617500
L6995000 5617500
" />
</g>
<g style="fill:#000000; fill-opacity:0.0; 
stroke:#000000; stroke-width:100000.000000; stroke-opacity:1; 
stroke-linecap:round; stroke-linejoin:round;">
<path d="M61900000 11462500
L61900000 6462500
" />
<path d="M66900000 11462500
L61900000 11462500
" />
<path d="M61900000 6462500
L66900000 6462500
" />
<path d="M61900000 7462500
L62900000 6462500
" />
<path d="M66900000 6462500
L66900000 11462500
" />
<circle cx="64400000.000000" cy="8962500.000000" r="2000000.000000" /> 
<path d="M78410000 22862500
L90410000 22862500
" />
<path d="M78410000 10862500
L90410000 10862500
" />
<path d="M90410000 10862500
L90410000 22862500
" />
<path d="M78410000 10862500
L78410000 22862500
" />
<path d="M55100000 6462500
L55100000 11462500
" />
<path d="M50100000 7462500
L51100000 6462500
" />
<path d="M50100000 6462500
L55100000 6462500
" />
<path d="M55100000 11462500
L50100000 11462500
" />
<path d="M50100000 11462500
L50100000 6462500
" />
<circle cx="52600000.000000" cy="8962500.000000" r="2000000.000000" /> 
<g >
</g>
<g >
</g>
<g >
</g>
<g >
</g>
<g >
</g>
<g >
</g>
<g >
</g>
<g >
</g>
<g >
</g>
<g >
</g>
<g >
</g>
<g >
</g>
<g >
</g>
<g >
</g>
<g >
</g>
<g >
</g>
<g >
</g>
<g >
</g>
<g >
</g>
<g >
</g>
</g>
<g style="fill:#000000; fill-opacity:0.0; 
stroke:#000000; stroke-width:100000.000000; stroke-opacity:1; 
stroke-linecap:round; stroke-linejoin:round;">
<path d="M2100000 4062500
L96200000 4062500
" />
<path d="M96200000 4062500
L96200000 62062500
" />
<path d="M96200000 62062500
L2100000 62062500
" />
<path d="M2100000 62062500
L2100000 4062500
" />
<g >
</g>
<g >
</g>
<g >
</g>
<g >
</g>
<g >
</g>
<g >
</g>
<g >
</g>
<g >
</g>
<g >
</g>
<g >
</g>
<g >
</g>
<g >
</g>
<g >
</g>
<g >
</g>
<g >
</g>
<g >
</g>
<g >
</g>
<g >
</g>
<g >
</g>
<g >
</g>
</g> 
</svg>
