<?xml version="1.0" standalone="no"?>
 <!DOCTYPE svg PUBLIC "-//W3C//DTD SVG 1.1//EN" 
 "http://www.w3.org/Graphics/SVG/1.1/DTD/svg11.dtd"> 
<svg
  xmlns:svg="http://www.w3.org/2000/svg"
  xmlns="http://www.w3.org/2000/svg"
  xmlns:xlink="http://www.w3.org/1999/xlink"
  version="1.1"
  width="10.068560cm" height="6.604000cm" viewBox="0 0 100685600 66040000">
<title>SVG Picture created as pico-color-picker-B_Fab.svg date 2022/09/14 17:13:42 </title>
  <desc>Picture generated by PCBNEW </desc>
<g style="fill:#000000; fill-opacity:1.000000;stroke:#000000; stroke-opacity:1.000000;
stroke-linecap:round; stroke-linejoin:round;"
 transform="translate(0 0) scale(1 1)">
</g>
<g style="fill:#000000; fill-opacity:0.0; 
stroke:#000000; stroke-width:0.000000; stroke-opacity:1; 
stroke-linecap:round; stroke-linejoin:round;">
</g>
<g style="fill:#000000; fill-opacity:0.0; 
stroke:#000000; stroke-width:150000.000000; stroke-opacity:1; 
stroke-linecap:round; stroke-linejoin:round;">
<g transform="rotate(-90.000000 41950000.000000 9162500.000000)">
<text x="41950000.000000" y="9662500.000000"
transform="scale(-1 1) translate(-83900000.000000 0)"
textLength="5047613.000000" font-size="1333333.000000" lengthAdjust="spacingAndGlyphs"
text-anchor="middle" opacity="0">0.1 µF</text>
</g>
<g class="stroked-text"><desc>0.1 µF</desc>
<path d="M41402380 7067261
L41402380 7162500
L41450000 7257738
L41497619 7305357
L41592857 7352976
L41783333 7400595
L42021428 7400595
L42211904 7352976
L42307142 7305357
L42354761 7257738
L42402380 7162500
L42402380 7067261
L42354761 6972023
L42307142 6924404
L42211904 6876785
L42021428 6829166
L41783333 6829166
L41592857 6876785
L41497619 6924404
L41450000 6972023
L41402380 7067261
" />
<path d="M42307142 7829166
L42354761 7876785
L42402380 7829166
L42354761 7781547
L42307142 7829166
L42402380 7829166
" />
<path d="M42402380 8829166
L42402380 8257738
" />
<path d="M42402380 8543452
L41402380 8543452
L41545238 8448214
L41640476 8352976
L41688095 8257738
" />
<path d="M41735714 10019642
L42735714 10019642
" />
<path d="M42259523 10495833
L42354761 10543452
L42402380 10638690
" />
<path d="M42259523 10019642
L42354761 10067261
L42402380 10162500
L42402380 10352976
L42354761 10448214
L42259523 10495833
L41735714 10495833
" />
<path d="M41878571 11400595
L41878571 11067261
" />
<path d="M42402380 11067261
L41402380 11067261
L41402380 11543452
" />
</g></g>
<g style="fill:#000000; fill-opacity:0.0; 
stroke:#000000; stroke-width:40000.000000; stroke-opacity:1; 
stroke-linecap:round; stroke-linejoin:round;">
<g transform="rotate(-90.000000 40220000.000000 9162500.000000)">
<text x="40220000.000000" y="9287500.000000"
transform="scale(-1 1) translate(-80440000.000000 0)"
textLength="293095.000000" font-size="333333.000000" lengthAdjust="spacingAndGlyphs"
text-anchor="middle" opacity="0">C3</text>
</g>
<g class="stroked-text"><desc>C3</desc>
<path d="M40309285 9120833
L40321190 9108928
L40333095 9073214
L40333095 9049404
L40321190 9013690
L40297380 8989880
L40273571 8977976
L40225952 8966071
L40190238 8966071
L40142619 8977976
L40118809 8989880
L40095000 9013690
L40083095 9049404
L40083095 9073214
L40095000 9108928
L40106904 9120833
" />
<path d="M40083095 9204166
L40083095 9358928
L40178333 9275595
L40178333 9311309
L40190238 9335119
L40202142 9347023
L40225952 9358928
L40285476 9358928
L40309285 9347023
L40321190 9335119
L40333095 9311309
L40333095 9239880
L40321190 9216071
L40309285 9204166
" />
</g></g>
<g style="fill:#000000; fill-opacity:0.0; 
stroke:#000000; stroke-width:150000.000000; stroke-opacity:1; 
stroke-linecap:round; stroke-linejoin:round;">
<g transform="rotate(-90.000000 64650000.000000 8762500.000000)">
<text x="64650000.000000" y="9262500.000000"
transform="scale(-1 1) translate(-129300000.000000 0)"
textLength="4995619.000000" font-size="1333333.000000" lengthAdjust="spacingAndGlyphs"
text-anchor="middle" opacity="0">0.1 µF</text>
</g>
<g class="stroked-text"><desc>0.1 µF</desc>
<path d="M64102380 6667261
L64102380 6762500
L64150000 6857738
L64197619 6905357
L64292857 6952976
L64483333 7000595
L64721428 7000595
L64911904 6952976
L65007142 6905357
L65054761 6857738
L65102380 6762500
L65102380 6667261
L65054761 6572023
L65007142 6524404
L64911904 6476785
L64721428 6429166
L64483333 6429166
L64292857 6476785
L64197619 6524404
L64150000 6572023
L64102380 6667261
" />
<path d="M65007142 7429166
L65054761 7476785
L65102380 7429166
L65054761 7381547
L65007142 7429166
L65102380 7429166
" />
<path d="M65102380 8429166
L65102380 7857738
" />
<path d="M65102380 8143452
L64102380 8143452
L64245238 8048214
L64340476 7952976
L64388095 7857738
" />
<path d="M64435714 9619642
L65435714 9619642
" />
<path d="M64959523 10095833
L65054761 10143452
L65102380 10238690
" />
<path d="M64959523 9619642
L65054761 9667261
L65102380 9762500
L65102380 9952976
L65054761 10048214
L64959523 10095833
L64435714 10095833
" />
<path d="M64578571 11000595
L64578571 10667261
" />
<path d="M65102380 10667261
L64102380 10667261
L64102380 11143452
" />
</g></g>
<g style="fill:#000000; fill-opacity:0.0; 
stroke:#000000; stroke-width:40000.000000; stroke-opacity:1; 
stroke-linecap:round; stroke-linejoin:round;">
<g transform="rotate(-90.000000 62920000.000000 8762500.000000)">
<text x="62920000.000000" y="8887500.000000"
transform="scale(-1 1) translate(-125840000.000000 0)"
textLength="293095.000000" font-size="333333.000000" lengthAdjust="spacingAndGlyphs"
text-anchor="middle" opacity="0">C1</text>
</g>
<g class="stroked-text"><desc>C1</desc>
<path d="M63009285 8720833
L63021190 8708928
L63033095 8673214
L63033095 8649404
L63021190 8613690
L62997380 8589880
L62973571 8577976
L62925952 8566071
L62890238 8566071
L62842619 8577976
L62818809 8589880
L62795000 8613690
L62783095 8649404
L62783095 8673214
L62795000 8708928
L62806904 8720833
" />
<path d="M63033095 8958928
L63033095 8816071
" />
<path d="M63033095 8887500
L62783095 8887500
L62818809 8863690
L62842619 8839880
L62854523 8816071
" />
</g></g>
<g style="fill:#000000; fill-opacity:0.0; 
stroke:#000000; stroke-width:150000.000000; stroke-opacity:1; 
stroke-linecap:round; stroke-linejoin:round;">
<text x="65200000.000000" y="10732500.000000"
transform="scale(-1 1) translate(-130400000.000000 0)"
textLength="4709905.000000" font-size="1333333.000000" lengthAdjust="spacingAndGlyphs"
text-anchor="middle" opacity="0">150 Ω</text>
<g class="stroked-text"><desc>150 Ω</desc>
<path d="M66819047 10684880
L67390476 10684880
" />
<path d="M67104761 10684880
L67104761 9684880
L67200000 9827738
L67295238 9922976
L67390476 9970595
" />
<path d="M65914285 9684880
L66390476 9684880
L66438095 10161071
L66390476 10113452
L66295238 10065833
L66057142 10065833
L65961904 10113452
L65914285 10161071
L65866666 10256309
L65866666 10494404
L65914285 10589642
L65961904 10637261
L66057142 10684880
L66295238 10684880
L66390476 10637261
L66438095 10589642
" />
<path d="M65247619 9684880
L65152380 9684880
L65057142 9732500
L65009523 9780119
L64961904 9875357
L64914285 10065833
L64914285 10303928
L64961904 10494404
L65009523 10589642
L65057142 10637261
L65152380 10684880
L65247619 10684880
L65342857 10637261
L65390476 10589642
L65438095 10494404
L65485714 10303928
L65485714 10065833
L65438095 9875357
L65390476 9780119
L65342857 9732500
L65247619 9684880
" />
<path d="M63771428 10684880
L63533333 10684880
L63533333 10494404
L63628571 10446785
L63723809 10351547
L63771428 10208690
L63771428 9970595
L63723809 9827738
L63628571 9732500
L63485714 9684880
L63295238 9684880
L63152380 9732500
L63057142 9827738
L63009523 9970595
L63009523 10208690
L63057142 10351547
L63152380 10446785
L63247619 10494404
L63247619 10684880
L63009523 10684880
" />
</g></g>
<g style="fill:#000000; fill-opacity:0.0; 
stroke:#000000; stroke-width:40000.000000; stroke-opacity:1; 
stroke-linecap:round; stroke-linejoin:round;">
<text x="65200000.000000" y="9192500.000000"
transform="scale(-1 1) translate(-130400000.000000 0)"
textLength="312619.000000" font-size="346666.000000" lengthAdjust="spacingAndGlyphs"
text-anchor="middle" opacity="0">R1</text>
<g class="stroked-text"><desc>R1</desc>
<path d="M65243333 9180119
L65330000 9056309
" />
<path d="M65391904 9180119
L65391904 8920119
L65292857 8920119
L65268095 8932500
L65255714 8944880
L65243333 8969642
L65243333 9006785
L65255714 9031547
L65268095 9043928
L65292857 9056309
L65391904 9056309
" />
<path d="M64995714 9180119
L65144285 9180119
" />
<path d="M65070000 9180119
L65070000 8920119
L65094761 8957261
L65119523 8982023
L65144285 8994404
" />
</g></g>
<g style="fill:#000000; fill-opacity:0.0; 
stroke:#000000; stroke-width:150000.000000; stroke-opacity:1; 
stroke-linecap:round; stroke-linejoin:round;">
<text x="54100000.000000" y="10532500.000000"
transform="scale(-1 1) translate(-108200000.000000 0)"
textLength="4709905.000000" font-size="1333333.000000" lengthAdjust="spacingAndGlyphs"
text-anchor="middle" opacity="0">150 Ω</text>
<g class="stroked-text"><desc>150 Ω</desc>
<path d="M55719047 10484880
L56290476 10484880
" />
<path d="M56004761 10484880
L56004761 9484880
L56100000 9627738
L56195238 9722976
L56290476 9770595
" />
<path d="M54814285 9484880
L55290476 9484880
L55338095 9961071
L55290476 9913452
L55195238 9865833
L54957142 9865833
L54861904 9913452
L54814285 9961071
L54766666 10056309
L54766666 10294404
L54814285 10389642
L54861904 10437261
L54957142 10484880
L55195238 10484880
L55290476 10437261
L55338095 10389642
" />
<path d="M54147619 9484880
L54052380 9484880
L53957142 9532500
L53909523 9580119
L53861904 9675357
L53814285 9865833
L53814285 10103928
L53861904 10294404
L53909523 10389642
L53957142 10437261
L54052380 10484880
L54147619 10484880
L54242857 10437261
L54290476 10389642
L54338095 10294404
L54385714 10103928
L54385714 9865833
L54338095 9675357
L54290476 9580119
L54242857 9532500
L54147619 9484880
" />
<path d="M52671428 10484880
L52433333 10484880
L52433333 10294404
L52528571 10246785
L52623809 10151547
L52671428 10008690
L52671428 9770595
L52623809 9627738
L52528571 9532500
L52385714 9484880
L52195238 9484880
L52052380 9532500
L51957142 9627738
L51909523 9770595
L51909523 10008690
L51957142 10151547
L52052380 10246785
L52147619 10294404
L52147619 10484880
L51909523 10484880
" />
</g></g>
<g style="fill:#000000; fill-opacity:0.0; 
stroke:#000000; stroke-width:40000.000000; stroke-opacity:1; 
stroke-linecap:round; stroke-linejoin:round;">
<text x="54100000.000000" y="8992500.000000"
transform="scale(-1 1) translate(-108200000.000000 0)"
textLength="312619.000000" font-size="346666.000000" lengthAdjust="spacingAndGlyphs"
text-anchor="middle" opacity="0">R2</text>
<g class="stroked-text"><desc>R2</desc>
<path d="M54143333 8980119
L54230000 8856309
" />
<path d="M54291904 8980119
L54291904 8720119
L54192857 8720119
L54168095 8732500
L54155714 8744880
L54143333 8769642
L54143333 8806785
L54155714 8831547
L54168095 8843928
L54192857 8856309
L54291904 8856309
" />
<path d="M54044285 8744880
L54031904 8732500
L54007142 8720119
L53945238 8720119
L53920476 8732500
L53908095 8744880
L53895714 8769642
L53895714 8794404
L53908095 8831547
L54056666 8980119
L53895714 8980119
" />
</g></g>
<g style="fill:#000000; fill-opacity:0.0; 
stroke:#000000; stroke-width:150000.000000; stroke-opacity:1; 
stroke-linecap:round; stroke-linejoin:round;">
<text x="42800000.000000" y="11132500.000000"
transform="scale(-1 1) translate(-85600000.000000 0)"
textLength="4709905.000000" font-size="1333333.000000" lengthAdjust="spacingAndGlyphs"
text-anchor="middle" opacity="0">150 Ω</text>
<g class="stroked-text"><desc>150 Ω</desc>
<path d="M44419047 11084880
L44990476 11084880
" />
<path d="M44704761 11084880
L44704761 10084880
L44800000 10227738
L44895238 10322976
L44990476 10370595
" />
<path d="M43514285 10084880
L43990476 10084880
L44038095 10561071
L43990476 10513452
L43895238 10465833
L43657142 10465833
L43561904 10513452
L43514285 10561071
L43466666 10656309
L43466666 10894404
L43514285 10989642
L43561904 11037261
L43657142 11084880
L43895238 11084880
L43990476 11037261
L44038095 10989642
" />
<path d="M42847619 10084880
L42752380 10084880
L42657142 10132500
L42609523 10180119
L42561904 10275357
L42514285 10465833
L42514285 10703928
L42561904 10894404
L42609523 10989642
L42657142 11037261
L42752380 11084880
L42847619 11084880
L42942857 11037261
L42990476 10989642
L43038095 10894404
L43085714 10703928
L43085714 10465833
L43038095 10275357
L42990476 10180119
L42942857 10132500
L42847619 10084880
" />
<path d="M41371428 11084880
L41133333 11084880
L41133333 10894404
L41228571 10846785
L41323809 10751547
L41371428 10608690
L41371428 10370595
L41323809 10227738
L41228571 10132500
L41085714 10084880
L40895238 10084880
L40752380 10132500
L40657142 10227738
L40609523 10370595
L40609523 10608690
L40657142 10751547
L40752380 10846785
L40847619 10894404
L40847619 11084880
L40609523 11084880
" />
</g></g>
<g style="fill:#000000; fill-opacity:0.0; 
stroke:#000000; stroke-width:40000.000000; stroke-opacity:1; 
stroke-linecap:round; stroke-linejoin:round;">
<text x="42800000.000000" y="9592500.000000"
transform="scale(-1 1) translate(-85600000.000000 0)"
textLength="312619.000000" font-size="346666.000000" lengthAdjust="spacingAndGlyphs"
text-anchor="middle" opacity="0">R3</text>
<g class="stroked-text"><desc>R3</desc>
<path d="M42843333 9580119
L42930000 9456309
" />
<path d="M42991904 9580119
L42991904 9320119
L42892857 9320119
L42868095 9332500
L42855714 9344880
L42843333 9369642
L42843333 9406785
L42855714 9431547
L42868095 9443928
L42892857 9456309
L42991904 9456309
" />
<path d="M42756666 9320119
L42595714 9320119
L42682380 9419166
L42645238 9419166
L42620476 9431547
L42608095 9443928
L42595714 9468690
L42595714 9530595
L42608095 9555357
L42620476 9567738
L42645238 9580119
L42719523 9580119
L42744285 9567738
L42756666 9555357
" />
</g></g>
<g style="fill:#000000; fill-opacity:0.0; 
stroke:#000000; stroke-width:150000.000000; stroke-opacity:1; 
stroke-linecap:round; stroke-linejoin:round;">
<g transform="rotate(-90.000000 52850000.000000 8562500.000000)">
<text x="52850000.000000" y="9062500.000000"
transform="scale(-1 1) translate(-105700000.000000 0)"
textLength="4995619.000000" font-size="1333333.000000" lengthAdjust="spacingAndGlyphs"
text-anchor="middle" opacity="0">0.1 µF</text>
</g>
<g class="stroked-text"><desc>0.1 µF</desc>
<path d="M52302380 6467261
L52302380 6562500
L52350000 6657738
L52397619 6705357
L52492857 6752976
L52683333 6800595
L52921428 6800595
L53111904 6752976
L53207142 6705357
L53254761 6657738
L53302380 6562500
L53302380 6467261
L53254761 6372023
L53207142 6324404
L53111904 6276785
L52921428 6229166
L52683333 6229166
L52492857 6276785
L52397619 6324404
L52350000 6372023
L52302380 6467261
" />
<path d="M53207142 7229166
L53254761 7276785
L53302380 7229166
L53254761 7181547
L53207142 7229166
L53302380 7229166
" />
<path d="M53302380 8229166
L53302380 7657738
" />
<path d="M53302380 7943452
L52302380 7943452
L52445238 7848214
L52540476 7752976
L52588095 7657738
" />
<path d="M52635714 9419642
L53635714 9419642
" />
<path d="M53159523 9895833
L53254761 9943452
L53302380 10038690
" />
<path d="M53159523 9419642
L53254761 9467261
L53302380 9562500
L53302380 9752976
L53254761 9848214
L53159523 9895833
L52635714 9895833
" />
<path d="M52778571 10800595
L52778571 10467261
" />
<path d="M53302380 10467261
L52302380 10467261
L52302380 10943452
" />
</g></g>
<g style="fill:#000000; fill-opacity:0.0; 
stroke:#000000; stroke-width:40000.000000; stroke-opacity:1; 
stroke-linecap:round; stroke-linejoin:round;">
<g transform="rotate(-90.000000 51120000.000000 8562500.000000)">
<text x="51120000.000000" y="8687500.000000"
transform="scale(-1 1) translate(-102240000.000000 0)"
textLength="293095.000000" font-size="333333.000000" lengthAdjust="spacingAndGlyphs"
text-anchor="middle" opacity="0">C2</text>
</g>
<g class="stroked-text"><desc>C2</desc>
<path d="M51209285 8520833
L51221190 8508928
L51233095 8473214
L51233095 8449404
L51221190 8413690
L51197380 8389880
L51173571 8377976
L51125952 8366071
L51090238 8366071
L51042619 8377976
L51018809 8389880
L50995000 8413690
L50983095 8449404
L50983095 8473214
L50995000 8508928
L51006904 8520833
" />
<path d="M51006904 8616071
L50995000 8627976
L50983095 8651785
L50983095 8711309
L50995000 8735119
L51006904 8747023
L51030714 8758928
L51054523 8758928
L51090238 8747023
L51233095 8604166
L51233095 8758928
" />
</g></g>
<g style="fill:#000000; fill-opacity:0.0; 
stroke:#000000; stroke-width:100000.000000; stroke-opacity:1; 
stroke-linecap:round; stroke-linejoin:round;">
<path d="M40750000 8862500
L40750000 9462500
" />
<path d="M41050000 9462500
L41050000 8862500
" />
<path d="M41050000 8862500
L40750000 8862500
" />
<path d="M40750000 9462500
L41050000 9462500
" />
<path d="M63750000 9062500
L63750000 8462500
" />
<path d="M63750000 8462500
L63450000 8462500
" />
<path d="M63450000 8462500
L63450000 9062500
" />
<path d="M63450000 9062500
L63750000 9062500
" />
<path d="M65725000 9332500
L65725000 8792500
" />
<path d="M64675000 8792500
L64675000 9332500
" />
<path d="M64675000 9332500
L65725000 9332500
" />
<path d="M65725000 8792500
L64675000 8792500
" />
<path d="M53575000 8592500
L53575000 9132500
" />
<path d="M53575000 9132500
L54625000 9132500
" />
<path d="M54625000 8592500
L53575000 8592500
" />
<path d="M54625000 9132500
L54625000 8592500
" />
<path d="M42275000 9732500
L43325000 9732500
" />
<path d="M43325000 9732500
L43325000 9192500
" />
<path d="M42275000 9192500
L42275000 9732500
" />
<path d="M43325000 9192500
L42275000 9192500
" />
<path d="M51950000 8862500
L51950000 8262500
" />
<path d="M51650000 8862500
L51950000 8862500
" />
<path d="M51650000 8262500
L51650000 8862500
" />
<path d="M51950000 8262500
L51650000 8262500
" />
<g >
</g>
<g >
</g>
<g >
</g>
<g >
</g>
<g >
</g>
<g >
</g>
<g >
</g>
<g >
</g>
<g >
</g>
<g >
</g>
<g >
</g>
<g >
</g>
<g >
</g>
<g >
</g>
<g >
</g>
<g >
</g>
<g >
</g>
<g >
</g>
<g >
</g>
<g >
</g>
</g>
<g style="fill:#000000; fill-opacity:0.0; 
stroke:#000000; stroke-width:100000.000000; stroke-opacity:1; 
stroke-linecap:round; stroke-linejoin:round;">
<path d="M2100000 4062500
L96200000 4062500
" />
<path d="M96200000 4062500
L96200000 62062500
" />
<path d="M96200000 62062500
L2100000 62062500
" />
<path d="M2100000 62062500
L2100000 4062500
" />
<g >
</g>
<g >
</g>
<g >
</g>
<g >
</g>
<g >
</g>
<g >
</g>
<g >
</g>
<g >
</g>
<g >
</g>
<g >
</g>
<g >
</g>
<g >
</g>
<g >
</g>
<g >
</g>
<g >
</g>
<g >
</g>
<g >
</g>
<g >
</g>
<g >
</g>
<g >
</g>
</g> 
</svg>
