<?xml version="1.0" standalone="no"?>
 <!DOCTYPE svg PUBLIC "-//W3C//DTD SVG 1.1//EN" 
 "http://www.w3.org/Graphics/SVG/1.1/DTD/svg11.dtd"> 
<svg
  xmlns:svg="http://www.w3.org/2000/svg"
  xmlns="http://www.w3.org/2000/svg"
  xmlns:xlink="http://www.w3.org/1999/xlink"
  version="1.1"
  width="10.068560cm" height="6.604000cm" viewBox="0 0 100685600 66040000">
<title>SVG Picture created as pico-color-picker-B_Paste.svg date 2022/09/14 17:13:42 </title>
  <desc>Picture generated by PCBNEW </desc>
<g style="fill:#000000; fill-opacity:1.000000;stroke:#000000; stroke-opacity:1.000000;
stroke-linecap:round; stroke-linejoin:round;"
 transform="translate(0 0) scale(1 1)">
</g>
<g style="fill:#000000; fill-opacity:0.0; 
stroke:#000000; stroke-width:0.000000; stroke-opacity:1; 
stroke-linecap:round; stroke-linejoin:round;">
<g >
</g>
<g >
</g>
<g >
</g>
<g >
</g>
<g >
</g>
<g >
</g>
<g >
</g>
<g >
</g>
<g >
</g>
<g >
</g>
<g >
</g>
<g >
</g>
<g style="fill:#000000; fill-opacity:0.0; 
stroke:#000000; stroke-width:0.000000; stroke-opacity:1; 
stroke-linecap:round; stroke-linejoin:round;">
</g>
<g style="fill:#000000; fill-opacity:0.0; 
stroke:#000000; stroke-width:1.000000; stroke-opacity:1; 
stroke-linecap:round; stroke-linejoin:round;">
</g>
<g style="fill:#000000; fill-opacity:1.0; 
stroke:#000000; stroke-width:1.000000; stroke-opacity:1; 
stroke-linecap:round; stroke-linejoin:round;">
<path style="fill:#000000; fill-opacity:1.0; 
stroke:#000000; stroke-width:1.000000; stroke-opacity:1; 
stroke-linecap:round; stroke-linejoin:round;fill-rule:evenodd;"
d="M 41000500.000000,8658500.000000
41030923.000000,8664552.000000
41056715.000000,8681785.000000
41073948.000000,8707577.000000
41080000.000000,8738000.000000
41080000.000000,8897000.000000
41073948.000000,8927423.000000
41056715.000000,8953215.000000
41030923.000000,8970448.000000
41000500.000000,8976500.000000
40799500.000000,8976500.000000
40769077.000000,8970448.000000
40743285.000000,8953215.000000
40726052.000000,8927423.000000
40720000.000000,8897000.000000
40720000.000000,8738000.000000
40726052.000000,8707577.000000
40743285.000000,8681785.000000
40769077.000000,8664552.000000
40799500.000000,8658500.000000
Z" /> 
<path style="fill:#000000; fill-opacity:1.0; 
stroke:#000000; stroke-width:1.000000; stroke-opacity:1; 
stroke-linecap:round; stroke-linejoin:round;fill-rule:evenodd;"
d="M 41000500.000000,9348500.000000
41030923.000000,9354552.000000
41056715.000000,9371785.000000
41073948.000000,9397577.000000
41080000.000000,9428000.000000
41080000.000000,9587000.000000
41073948.000000,9617423.000000
41056715.000000,9643215.000000
41030923.000000,9660448.000000
41000500.000000,9666500.000000
40799500.000000,9666500.000000
40769077.000000,9660448.000000
40743285.000000,9643215.000000
40726052.000000,9617423.000000
40720000.000000,9587000.000000
40720000.000000,9428000.000000
40726052.000000,9397577.000000
40743285.000000,9371785.000000
40769077.000000,9354552.000000
40799500.000000,9348500.000000
Z" /> 
</g>
<g >
</g>
<g style="fill:#000000; fill-opacity:1.0; 
stroke:#000000; stroke-width:1.000000; stroke-opacity:1; 
stroke-linecap:round; stroke-linejoin:round;">
<path style="fill:#000000; fill-opacity:1.0; 
stroke:#000000; stroke-width:1.000000; stroke-opacity:1; 
stroke-linecap:round; stroke-linejoin:round;fill-rule:evenodd;"
d="M 63700500.000000,8948500.000000
63730923.000000,8954552.000000
63756715.000000,8971785.000000
63773948.000000,8997577.000000
63780000.000000,9028000.000000
63780000.000000,9187000.000000
63773948.000000,9217423.000000
63756715.000000,9243215.000000
63730923.000000,9260448.000000
63700500.000000,9266500.000000
63499500.000000,9266500.000000
63469077.000000,9260448.000000
63443285.000000,9243215.000000
63426052.000000,9217423.000000
63420000.000000,9187000.000000
63420000.000000,9028000.000000
63426052.000000,8997577.000000
63443285.000000,8971785.000000
63469077.000000,8954552.000000
63499500.000000,8948500.000000
Z" /> 
<path style="fill:#000000; fill-opacity:1.0; 
stroke:#000000; stroke-width:1.000000; stroke-opacity:1; 
stroke-linecap:round; stroke-linejoin:round;fill-rule:evenodd;"
d="M 63700500.000000,8258500.000000
63730923.000000,8264552.000000
63756715.000000,8281785.000000
63773948.000000,8307577.000000
63780000.000000,8338000.000000
63780000.000000,8497000.000000
63773948.000000,8527423.000000
63756715.000000,8553215.000000
63730923.000000,8570448.000000
63700500.000000,8576500.000000
63499500.000000,8576500.000000
63469077.000000,8570448.000000
63443285.000000,8553215.000000
63426052.000000,8527423.000000
63420000.000000,8497000.000000
63420000.000000,8338000.000000
63426052.000000,8307577.000000
63443285.000000,8281785.000000
63469077.000000,8264552.000000
63499500.000000,8258500.000000
Z" /> 
</g>
<g >
</g>
<g style="fill:#000000; fill-opacity:1.0; 
stroke:#000000; stroke-width:1.000000; stroke-opacity:1; 
stroke-linecap:round; stroke-linejoin:round;">
<path style="fill:#000000; fill-opacity:1.0; 
stroke:#000000; stroke-width:1.000000; stroke-opacity:1; 
stroke-linecap:round; stroke-linejoin:round;fill-rule:evenodd;"
d="M 65980000.000000,9247500.000000
65969724.000000,9299162.000000
65940459.000000,9342959.000000
65896662.000000,9372224.000000
65845000.000000,9382500.000000
65575000.000000,9382500.000000
65523338.000000,9372224.000000
65479541.000000,9342959.000000
65450276.000000,9299162.000000
65440000.000000,9247500.000000
65440000.000000,8877500.000000
65450276.000000,8825838.000000
65479541.000000,8782041.000000
65523338.000000,8752776.000000
65575000.000000,8742500.000000
65845000.000000,8742500.000000
65896662.000000,8752776.000000
65940459.000000,8782041.000000
65969724.000000,8825838.000000
65980000.000000,8877500.000000
Z" /> 
<path style="fill:#000000; fill-opacity:1.0; 
stroke:#000000; stroke-width:1.000000; stroke-opacity:1; 
stroke-linecap:round; stroke-linejoin:round;fill-rule:evenodd;"
d="M 64960000.000000,9247500.000000
64949724.000000,9299162.000000
64920459.000000,9342959.000000
64876662.000000,9372224.000000
64825000.000000,9382500.000000
64555000.000000,9382500.000000
64503338.000000,9372224.000000
64459541.000000,9342959.000000
64430276.000000,9299162.000000
64420000.000000,9247500.000000
64420000.000000,8877500.000000
64430276.000000,8825838.000000
64459541.000000,8782041.000000
64503338.000000,8752776.000000
64555000.000000,8742500.000000
64825000.000000,8742500.000000
64876662.000000,8752776.000000
64920459.000000,8782041.000000
64949724.000000,8825838.000000
64960000.000000,8877500.000000
Z" /> 
</g>
<g >
</g>
<g style="fill:#000000; fill-opacity:1.0; 
stroke:#000000; stroke-width:1.000000; stroke-opacity:1; 
stroke-linecap:round; stroke-linejoin:round;">
<path style="fill:#000000; fill-opacity:1.0; 
stroke:#000000; stroke-width:1.000000; stroke-opacity:1; 
stroke-linecap:round; stroke-linejoin:round;fill-rule:evenodd;"
d="M 54880000.000000,9047500.000000
54869724.000000,9099162.000000
54840459.000000,9142959.000000
54796662.000000,9172224.000000
54745000.000000,9182500.000000
54475000.000000,9182500.000000
54423338.000000,9172224.000000
54379541.000000,9142959.000000
54350276.000000,9099162.000000
54340000.000000,9047500.000000
54340000.000000,8677500.000000
54350276.000000,8625838.000000
54379541.000000,8582041.000000
54423338.000000,8552776.000000
54475000.000000,8542500.000000
54745000.000000,8542500.000000
54796662.000000,8552776.000000
54840459.000000,8582041.000000
54869724.000000,8625838.000000
54880000.000000,8677500.000000
Z" /> 
<path style="fill:#000000; fill-opacity:1.0; 
stroke:#000000; stroke-width:1.000000; stroke-opacity:1; 
stroke-linecap:round; stroke-linejoin:round;fill-rule:evenodd;"
d="M 53860000.000000,9047500.000000
53849724.000000,9099162.000000
53820459.000000,9142959.000000
53776662.000000,9172224.000000
53725000.000000,9182500.000000
53455000.000000,9182500.000000
53403338.000000,9172224.000000
53359541.000000,9142959.000000
53330276.000000,9099162.000000
53320000.000000,9047500.000000
53320000.000000,8677500.000000
53330276.000000,8625838.000000
53359541.000000,8582041.000000
53403338.000000,8552776.000000
53455000.000000,8542500.000000
53725000.000000,8542500.000000
53776662.000000,8552776.000000
53820459.000000,8582041.000000
53849724.000000,8625838.000000
53860000.000000,8677500.000000
Z" /> 
</g>
<g >
</g>
<g style="fill:#000000; fill-opacity:1.0; 
stroke:#000000; stroke-width:1.000000; stroke-opacity:1; 
stroke-linecap:round; stroke-linejoin:round;">
<path style="fill:#000000; fill-opacity:1.0; 
stroke:#000000; stroke-width:1.000000; stroke-opacity:1; 
stroke-linecap:round; stroke-linejoin:round;fill-rule:evenodd;"
d="M 43580000.000000,9647500.000000
43569724.000000,9699162.000000
43540459.000000,9742959.000000
43496662.000000,9772224.000000
43445000.000000,9782500.000000
43175000.000000,9782500.000000
43123338.000000,9772224.000000
43079541.000000,9742959.000000
43050276.000000,9699162.000000
43040000.000000,9647500.000000
43040000.000000,9277500.000000
43050276.000000,9225838.000000
43079541.000000,9182041.000000
43123338.000000,9152776.000000
43175000.000000,9142500.000000
43445000.000000,9142500.000000
43496662.000000,9152776.000000
43540459.000000,9182041.000000
43569724.000000,9225838.000000
43580000.000000,9277500.000000
Z" /> 
<path style="fill:#000000; fill-opacity:1.0; 
stroke:#000000; stroke-width:1.000000; stroke-opacity:1; 
stroke-linecap:round; stroke-linejoin:round;fill-rule:evenodd;"
d="M 42560000.000000,9647500.000000
42549724.000000,9699162.000000
42520459.000000,9742959.000000
42476662.000000,9772224.000000
42425000.000000,9782500.000000
42155000.000000,9782500.000000
42103338.000000,9772224.000000
42059541.000000,9742959.000000
42030276.000000,9699162.000000
42020000.000000,9647500.000000
42020000.000000,9277500.000000
42030276.000000,9225838.000000
42059541.000000,9182041.000000
42103338.000000,9152776.000000
42155000.000000,9142500.000000
42425000.000000,9142500.000000
42476662.000000,9152776.000000
42520459.000000,9182041.000000
42549724.000000,9225838.000000
42560000.000000,9277500.000000
Z" /> 
</g>
<g >
</g>
<g style="fill:#000000; fill-opacity:1.0; 
stroke:#000000; stroke-width:1.000000; stroke-opacity:1; 
stroke-linecap:round; stroke-linejoin:round;">
<path style="fill:#000000; fill-opacity:1.0; 
stroke:#000000; stroke-width:1.000000; stroke-opacity:1; 
stroke-linecap:round; stroke-linejoin:round;fill-rule:evenodd;"
d="M 51900500.000000,8748500.000000
51930923.000000,8754552.000000
51956715.000000,8771785.000000
51973948.000000,8797577.000000
51980000.000000,8828000.000000
51980000.000000,8987000.000000
51973948.000000,9017423.000000
51956715.000000,9043215.000000
51930923.000000,9060448.000000
51900500.000000,9066500.000000
51699500.000000,9066500.000000
51669077.000000,9060448.000000
51643285.000000,9043215.000000
51626052.000000,9017423.000000
51620000.000000,8987000.000000
51620000.000000,8828000.000000
51626052.000000,8797577.000000
51643285.000000,8771785.000000
51669077.000000,8754552.000000
51699500.000000,8748500.000000
Z" /> 
<path style="fill:#000000; fill-opacity:1.0; 
stroke:#000000; stroke-width:1.000000; stroke-opacity:1; 
stroke-linecap:round; stroke-linejoin:round;fill-rule:evenodd;"
d="M 51900500.000000,8058500.000000
51930923.000000,8064552.000000
51956715.000000,8081785.000000
51973948.000000,8107577.000000
51980000.000000,8138000.000000
51980000.000000,8297000.000000
51973948.000000,8327423.000000
51956715.000000,8353215.000000
51930923.000000,8370448.000000
51900500.000000,8376500.000000
51699500.000000,8376500.000000
51669077.000000,8370448.000000
51643285.000000,8353215.000000
51626052.000000,8327423.000000
51620000.000000,8297000.000000
51620000.000000,8138000.000000
51626052.000000,8107577.000000
51643285.000000,8081785.000000
51669077.000000,8064552.000000
51699500.000000,8058500.000000
Z" /> 
</g>
<g >
</g>
<g >
</g>
<g >
</g>
</g>
<g style="fill:#000000; fill-opacity:1.0; 
stroke:#000000; stroke-width:1.000000; stroke-opacity:1; 
stroke-linecap:round; stroke-linejoin:round;">
</g>
<g style="fill:#000000; fill-opacity:1.0; 
stroke:#000000; stroke-width:100000.000000; stroke-opacity:1; 
stroke-linecap:round; stroke-linejoin:round;">
</g>
<g style="fill:#000000; fill-opacity:0.0; 
stroke:#000000; stroke-width:100000.000000; stroke-opacity:1; 
stroke-linecap:round; stroke-linejoin:round;">
<path d="M2100000 4062500
L96200000 4062500
" />
<path d="M96200000 4062500
L96200000 62062500
" />
<path d="M96200000 62062500
L2100000 62062500
" />
<path d="M2100000 62062500
L2100000 4062500
" />
<g >
</g>
<g >
</g>
<g >
</g>
<g >
</g>
<g >
</g>
<g >
</g>
<g >
</g>
<g >
</g>
<g >
</g>
<g >
</g>
<g >
</g>
<g >
</g>
<g >
</g>
<g >
</g>
<g >
</g>
<g >
</g>
<g >
</g>
<g >
</g>
<g >
</g>
<g >
</g>
</g> 
</svg>
