%TF.GenerationSoftware,KiCad,Pcbnew,(6.0.7-1)-1*%
%TF.CreationDate,2022-09-01T12:29:15-04:00*%
%TF.ProjectId,pico-color-picker,7069636f-2d63-46f6-9c6f-722d7069636b,rev?*%
%TF.SameCoordinates,Original*%
%TF.FileFunction,Soldermask,Top*%
%TF.FilePolarity,Negative*%
%FSLAX46Y46*%
G04 Gerber Fmt 4.6, Leading zero omitted, Abs format (unit mm)*
G04 Created by KiCad (PCBNEW (6.0.7-1)-1) date 2022-09-01 12:29:15*
%MOMM*%
%LPD*%
G01*
G04 APERTURE LIST*
%ADD10R,2.000000X2.000000*%
%ADD11C,2.000000*%
%ADD12R,2.000000X3.200000*%
%ADD13C,1.524000*%
%ADD14C,4.064000*%
%ADD15R,1.350000X1.350000*%
%ADD16C,1.350000*%
%ADD17R,1.500000X1.000000*%
%ADD18O,3.048000X1.850000*%
%ADD19O,1.500000X1.500000*%
%ADD20O,1.800000X1.800000*%
%ADD21R,3.500000X1.700000*%
%ADD22O,1.700000X1.700000*%
%ADD23R,1.700000X1.700000*%
%ADD24R,1.700000X3.500000*%
G04 APERTURE END LIST*
D10*
%TO.C,SW3*%
X119000000Y-103550000D03*
D11*
X114000000Y-103550000D03*
X116500000Y-103550000D03*
D12*
X122100000Y-111050000D03*
X110900000Y-111050000D03*
D11*
X114000000Y-118050000D03*
X119000000Y-118050000D03*
%TD*%
D10*
%TO.C,SW1*%
X162900000Y-103600000D03*
D11*
X157900000Y-103600000D03*
X160400000Y-103600000D03*
D12*
X166000000Y-111100000D03*
X154800000Y-111100000D03*
D11*
X157900000Y-118100000D03*
X162900000Y-118100000D03*
%TD*%
D13*
%TO.C,U2*%
X121750000Y-94655000D03*
X124290000Y-94655000D03*
X126830000Y-94655000D03*
X129370000Y-94655000D03*
X131910000Y-94655000D03*
X134450000Y-94655000D03*
D14*
X114130000Y-78145000D03*
X142070000Y-78145000D03*
X114130000Y-94655000D03*
X142070000Y-94655000D03*
%TD*%
D15*
%TO.C,J1*%
X163400000Y-67300000D03*
D16*
X160900000Y-67300000D03*
X158400000Y-67300000D03*
X155900000Y-67300000D03*
%TD*%
D10*
%TO.C,SW2*%
X140900000Y-103600000D03*
D11*
X135900000Y-103600000D03*
X138400000Y-103600000D03*
D12*
X144000000Y-111100000D03*
X132800000Y-111100000D03*
D11*
X135900000Y-118100000D03*
X140900000Y-118100000D03*
%TD*%
D17*
%TO.C,D3*%
X113850000Y-67300000D03*
X113850000Y-68900000D03*
X113850000Y-70500000D03*
X118750000Y-70500000D03*
X118750000Y-68900000D03*
X118750000Y-67300000D03*
%TD*%
D18*
%TO.C,SW4*%
X165860000Y-88900000D03*
X153360000Y-88900000D03*
X153360000Y-93900000D03*
X165860000Y-93900000D03*
%TD*%
D19*
%TO.C,U1*%
X90270000Y-70085000D03*
D20*
X95420000Y-67055000D03*
X89970000Y-67055000D03*
D19*
X95120000Y-70085000D03*
D21*
X82905000Y-66925000D03*
D22*
X83805000Y-66925000D03*
X83805000Y-69465000D03*
D21*
X82905000Y-69465000D03*
X82905000Y-72005000D03*
D23*
X83805000Y-72005000D03*
D21*
X82905000Y-74545000D03*
D22*
X83805000Y-74545000D03*
X83805000Y-77085000D03*
D21*
X82905000Y-77085000D03*
D22*
X83805000Y-79625000D03*
D21*
X82905000Y-79625000D03*
X82905000Y-82165000D03*
D22*
X83805000Y-82165000D03*
D23*
X83805000Y-84705000D03*
D21*
X82905000Y-84705000D03*
D22*
X83805000Y-87245000D03*
D21*
X82905000Y-87245000D03*
X82905000Y-89785000D03*
D22*
X83805000Y-89785000D03*
D21*
X82905000Y-92325000D03*
D22*
X83805000Y-92325000D03*
X83805000Y-94865000D03*
D21*
X82905000Y-94865000D03*
D23*
X83805000Y-97405000D03*
D21*
X82905000Y-97405000D03*
X82905000Y-99945000D03*
D22*
X83805000Y-99945000D03*
X83805000Y-102485000D03*
D21*
X82905000Y-102485000D03*
D22*
X83805000Y-105025000D03*
D21*
X82905000Y-105025000D03*
X82905000Y-107565000D03*
D22*
X83805000Y-107565000D03*
D21*
X82905000Y-110105000D03*
D23*
X83805000Y-110105000D03*
D22*
X83805000Y-112645000D03*
D21*
X82905000Y-112645000D03*
D22*
X83805000Y-115185000D03*
D21*
X82905000Y-115185000D03*
X102485000Y-115185000D03*
D22*
X101585000Y-115185000D03*
D21*
X102485000Y-112645000D03*
D22*
X101585000Y-112645000D03*
D23*
X101585000Y-110105000D03*
D21*
X102485000Y-110105000D03*
X102485000Y-107565000D03*
D22*
X101585000Y-107565000D03*
D21*
X102485000Y-105025000D03*
D22*
X101585000Y-105025000D03*
X101585000Y-102485000D03*
D21*
X102485000Y-102485000D03*
D22*
X101585000Y-99945000D03*
D21*
X102485000Y-99945000D03*
X102485000Y-97405000D03*
D23*
X101585000Y-97405000D03*
D21*
X102485000Y-94865000D03*
D22*
X101585000Y-94865000D03*
D21*
X102485000Y-92325000D03*
D22*
X101585000Y-92325000D03*
X101585000Y-89785000D03*
D21*
X102485000Y-89785000D03*
X102485000Y-87245000D03*
D22*
X101585000Y-87245000D03*
D23*
X101585000Y-84705000D03*
D21*
X102485000Y-84705000D03*
D22*
X101585000Y-82165000D03*
D21*
X102485000Y-82165000D03*
D22*
X101585000Y-79625000D03*
D21*
X102485000Y-79625000D03*
X102485000Y-77085000D03*
D22*
X101585000Y-77085000D03*
X101585000Y-74545000D03*
D21*
X102485000Y-74545000D03*
X102485000Y-72005000D03*
D23*
X101585000Y-72005000D03*
D22*
X101585000Y-69465000D03*
D21*
X102485000Y-69465000D03*
D22*
X101585000Y-66925000D03*
D21*
X102485000Y-66925000D03*
D22*
X90155000Y-114955000D03*
D24*
X90155000Y-115855000D03*
D23*
X92695000Y-114955000D03*
D24*
X92695000Y-115855000D03*
X95235000Y-115855000D03*
D22*
X95235000Y-114955000D03*
%TD*%
D17*
%TO.C,D1*%
X137150000Y-67300000D03*
X137150000Y-68900000D03*
X137150000Y-70500000D03*
X142050000Y-70500000D03*
X142050000Y-68900000D03*
X142050000Y-67300000D03*
%TD*%
D18*
%TO.C,SW5*%
X165860000Y-74300000D03*
X153360000Y-74300000D03*
X153360000Y-79300000D03*
X165860000Y-79300000D03*
%TD*%
D17*
%TO.C,D2*%
X125350000Y-67300000D03*
X125350000Y-68900000D03*
X125350000Y-70500000D03*
X130250000Y-70500000D03*
X130250000Y-68900000D03*
X130250000Y-67300000D03*
%TD*%
M02*
