%TF.GenerationSoftware,KiCad,Pcbnew,(6.0.7-1)-1*%
%TF.CreationDate,2022-09-01T12:29:15-04:00*%
%TF.ProjectId,pico-color-picker,7069636f-2d63-46f6-9c6f-722d7069636b,rev?*%
%TF.SameCoordinates,Original*%
%TF.FileFunction,Legend,Top*%
%TF.FilePolarity,Positive*%
%FSLAX46Y46*%
G04 Gerber Fmt 4.6, Leading zero omitted, Abs format (unit mm)*
G04 Created by KiCad (PCBNEW (6.0.7-1)-1) date 2022-09-01 12:29:15*
%MOMM*%
%LPD*%
G01*
G04 APERTURE LIST*
%ADD10C,0.200000*%
%ADD11C,0.150000*%
%ADD12C,0.120000*%
G04 APERTURE END LIST*
D10*
X126400000Y-111050000D02*
G75*
G03*
X126400000Y-111050000I-9900000J0D01*
G01*
X148300000Y-111100000D02*
G75*
G03*
X148300000Y-111100000I-9900000J0D01*
G01*
X170300000Y-111100000D02*
G75*
G03*
X170300000Y-111100000I-9900000J0D01*
G01*
D11*
%TO.C,SW3*%
X124104761Y-107683333D02*
X124152380Y-107540476D01*
X124152380Y-107302380D01*
X124104761Y-107207142D01*
X124057142Y-107159523D01*
X123961904Y-107111904D01*
X123866666Y-107111904D01*
X123771428Y-107159523D01*
X123723809Y-107207142D01*
X123676190Y-107302380D01*
X123628571Y-107492857D01*
X123580952Y-107588095D01*
X123533333Y-107635714D01*
X123438095Y-107683333D01*
X123342857Y-107683333D01*
X123247619Y-107635714D01*
X123200000Y-107588095D01*
X123152380Y-107492857D01*
X123152380Y-107254761D01*
X123200000Y-107111904D01*
X123152380Y-106778571D02*
X124152380Y-106540476D01*
X123438095Y-106350000D01*
X124152380Y-106159523D01*
X123152380Y-105921428D01*
X123152380Y-105635714D02*
X123152380Y-105016666D01*
X123533333Y-105350000D01*
X123533333Y-105207142D01*
X123580952Y-105111904D01*
X123628571Y-105064285D01*
X123723809Y-105016666D01*
X123961904Y-105016666D01*
X124057142Y-105064285D01*
X124104761Y-105111904D01*
X124152380Y-105207142D01*
X124152380Y-105492857D01*
X124104761Y-105588095D01*
X124057142Y-105635714D01*
%TO.C,SW1*%
X168004761Y-107733333D02*
X168052380Y-107590476D01*
X168052380Y-107352380D01*
X168004761Y-107257142D01*
X167957142Y-107209523D01*
X167861904Y-107161904D01*
X167766666Y-107161904D01*
X167671428Y-107209523D01*
X167623809Y-107257142D01*
X167576190Y-107352380D01*
X167528571Y-107542857D01*
X167480952Y-107638095D01*
X167433333Y-107685714D01*
X167338095Y-107733333D01*
X167242857Y-107733333D01*
X167147619Y-107685714D01*
X167100000Y-107638095D01*
X167052380Y-107542857D01*
X167052380Y-107304761D01*
X167100000Y-107161904D01*
X167052380Y-106828571D02*
X168052380Y-106590476D01*
X167338095Y-106400000D01*
X168052380Y-106209523D01*
X167052380Y-105971428D01*
X168052380Y-105066666D02*
X168052380Y-105638095D01*
X168052380Y-105352380D02*
X167052380Y-105352380D01*
X167195238Y-105447619D01*
X167290476Y-105542857D01*
X167338095Y-105638095D01*
%TO.C,U2*%
X127338095Y-84479380D02*
X127338095Y-85288904D01*
X127385714Y-85384142D01*
X127433333Y-85431761D01*
X127528571Y-85479380D01*
X127719047Y-85479380D01*
X127814285Y-85431761D01*
X127861904Y-85384142D01*
X127909523Y-85288904D01*
X127909523Y-84479380D01*
X128338095Y-84574619D02*
X128385714Y-84527000D01*
X128480952Y-84479380D01*
X128719047Y-84479380D01*
X128814285Y-84527000D01*
X128861904Y-84574619D01*
X128909523Y-84669857D01*
X128909523Y-84765095D01*
X128861904Y-84907952D01*
X128290476Y-85479380D01*
X128909523Y-85479380D01*
%TO.C,J1*%
X165602380Y-67633333D02*
X166316666Y-67633333D01*
X166459523Y-67680952D01*
X166554761Y-67776190D01*
X166602380Y-67919047D01*
X166602380Y-68014285D01*
X166602380Y-66633333D02*
X166602380Y-67204761D01*
X166602380Y-66919047D02*
X165602380Y-66919047D01*
X165745238Y-67014285D01*
X165840476Y-67109523D01*
X165888095Y-67204761D01*
%TO.C,SW2*%
X146004761Y-107733333D02*
X146052380Y-107590476D01*
X146052380Y-107352380D01*
X146004761Y-107257142D01*
X145957142Y-107209523D01*
X145861904Y-107161904D01*
X145766666Y-107161904D01*
X145671428Y-107209523D01*
X145623809Y-107257142D01*
X145576190Y-107352380D01*
X145528571Y-107542857D01*
X145480952Y-107638095D01*
X145433333Y-107685714D01*
X145338095Y-107733333D01*
X145242857Y-107733333D01*
X145147619Y-107685714D01*
X145100000Y-107638095D01*
X145052380Y-107542857D01*
X145052380Y-107304761D01*
X145100000Y-107161904D01*
X145052380Y-106828571D02*
X146052380Y-106590476D01*
X145338095Y-106400000D01*
X146052380Y-106209523D01*
X145052380Y-105971428D01*
X145147619Y-105638095D02*
X145100000Y-105590476D01*
X145052380Y-105495238D01*
X145052380Y-105257142D01*
X145100000Y-105161904D01*
X145147619Y-105114285D01*
X145242857Y-105066666D01*
X145338095Y-105066666D01*
X145480952Y-105114285D01*
X146052380Y-105685714D01*
X146052380Y-105066666D01*
%TO.C,D3*%
X115561904Y-65852380D02*
X115561904Y-64852380D01*
X115800000Y-64852380D01*
X115942857Y-64900000D01*
X116038095Y-64995238D01*
X116085714Y-65090476D01*
X116133333Y-65280952D01*
X116133333Y-65423809D01*
X116085714Y-65614285D01*
X116038095Y-65709523D01*
X115942857Y-65804761D01*
X115800000Y-65852380D01*
X115561904Y-65852380D01*
X116466666Y-64852380D02*
X117085714Y-64852380D01*
X116752380Y-65233333D01*
X116895238Y-65233333D01*
X116990476Y-65280952D01*
X117038095Y-65328571D01*
X117085714Y-65423809D01*
X117085714Y-65661904D01*
X117038095Y-65757142D01*
X116990476Y-65804761D01*
X116895238Y-65852380D01*
X116609523Y-65852380D01*
X116514285Y-65804761D01*
X116466666Y-65757142D01*
%TO.C,SW4*%
X151204761Y-92433333D02*
X151252380Y-92290476D01*
X151252380Y-92052380D01*
X151204761Y-91957142D01*
X151157142Y-91909523D01*
X151061904Y-91861904D01*
X150966666Y-91861904D01*
X150871428Y-91909523D01*
X150823809Y-91957142D01*
X150776190Y-92052380D01*
X150728571Y-92242857D01*
X150680952Y-92338095D01*
X150633333Y-92385714D01*
X150538095Y-92433333D01*
X150442857Y-92433333D01*
X150347619Y-92385714D01*
X150300000Y-92338095D01*
X150252380Y-92242857D01*
X150252380Y-92004761D01*
X150300000Y-91861904D01*
X150252380Y-91528571D02*
X151252380Y-91290476D01*
X150538095Y-91100000D01*
X151252380Y-90909523D01*
X150252380Y-90671428D01*
X150585714Y-89861904D02*
X151252380Y-89861904D01*
X150204761Y-90100000D02*
X150919047Y-90338095D01*
X150919047Y-89719047D01*
%TO.C,U1*%
X91933095Y-90507380D02*
X91933095Y-91316904D01*
X91980714Y-91412142D01*
X92028333Y-91459761D01*
X92123571Y-91507380D01*
X92314047Y-91507380D01*
X92409285Y-91459761D01*
X92456904Y-91412142D01*
X92504523Y-91316904D01*
X92504523Y-90507380D01*
X93504523Y-91507380D02*
X92933095Y-91507380D01*
X93218809Y-91507380D02*
X93218809Y-90507380D01*
X93123571Y-90650238D01*
X93028333Y-90745476D01*
X92933095Y-90793095D01*
X79208096Y-67046218D02*
X79127284Y-67073155D01*
X79046471Y-67153967D01*
X78992597Y-67261717D01*
X78992597Y-67369467D01*
X79019534Y-67450279D01*
X79100346Y-67584966D01*
X79181158Y-67665778D01*
X79315845Y-67746590D01*
X79396658Y-67773528D01*
X79504407Y-67773528D01*
X79612157Y-67719653D01*
X79666032Y-67665778D01*
X79719906Y-67558028D01*
X79719906Y-67504154D01*
X79531345Y-67315592D01*
X79423595Y-67423341D01*
X80016218Y-67315592D02*
X79450532Y-66749906D01*
X79666032Y-66534407D01*
X79746844Y-66507470D01*
X79800719Y-66507470D01*
X79881531Y-66534407D01*
X79962343Y-66615219D01*
X79989280Y-66696032D01*
X79989280Y-66749906D01*
X79962343Y-66830719D01*
X79746844Y-67046218D01*
X80123967Y-66076471D02*
X80177842Y-66022597D01*
X80258654Y-65995659D01*
X80312529Y-65995659D01*
X80393341Y-66022597D01*
X80528028Y-66103409D01*
X80662715Y-66238096D01*
X80743528Y-66372783D01*
X80770465Y-66453595D01*
X80770465Y-66507470D01*
X80743528Y-66588282D01*
X80689653Y-66642157D01*
X80608841Y-66669094D01*
X80554966Y-66669094D01*
X80474154Y-66642157D01*
X80339467Y-66561345D01*
X80204780Y-66426658D01*
X80123967Y-66291971D01*
X80097030Y-66211158D01*
X80097030Y-66157284D01*
X80123967Y-66076471D01*
X104846597Y-85795964D02*
X105115971Y-85526590D01*
X104954346Y-86011463D02*
X104577223Y-85257216D01*
X105331470Y-85634340D01*
X105277595Y-84610719D02*
X105196783Y-84637656D01*
X105115971Y-84718468D01*
X105062096Y-84826218D01*
X105062096Y-84933967D01*
X105089033Y-85014780D01*
X105169845Y-85149467D01*
X105250658Y-85230279D01*
X105385345Y-85311091D01*
X105466157Y-85338028D01*
X105573906Y-85338028D01*
X105681656Y-85284154D01*
X105735531Y-85230279D01*
X105789406Y-85122529D01*
X105789406Y-85068654D01*
X105600844Y-84880093D01*
X105493094Y-84987842D01*
X106085717Y-84880093D02*
X105520032Y-84314407D01*
X106408966Y-84556844D01*
X105843280Y-83991158D01*
X106678340Y-84287470D02*
X106112654Y-83721784D01*
X106247341Y-83587097D01*
X106355091Y-83533223D01*
X106462841Y-83533223D01*
X106543653Y-83560160D01*
X106678340Y-83640972D01*
X106759152Y-83721784D01*
X106839964Y-83856471D01*
X106866902Y-83937284D01*
X106866902Y-84045033D01*
X106813027Y-84152783D01*
X106678340Y-84287470D01*
X104617131Y-75013308D02*
X104967317Y-74663122D01*
X104994255Y-75067183D01*
X105075067Y-74986370D01*
X105155879Y-74959433D01*
X105209754Y-74959433D01*
X105290566Y-74986370D01*
X105425253Y-75121057D01*
X105452190Y-75201870D01*
X105452190Y-75255744D01*
X105425253Y-75336557D01*
X105263629Y-75498181D01*
X105182816Y-75525118D01*
X105128942Y-75525118D01*
X105128942Y-74501497D02*
X105883189Y-74878621D01*
X105506065Y-74124374D01*
X105640752Y-73989687D02*
X105990938Y-73639500D01*
X106017876Y-74043561D01*
X106098688Y-73962749D01*
X106179500Y-73935812D01*
X106233375Y-73935812D01*
X106314187Y-73962749D01*
X106448874Y-74097436D01*
X106475812Y-74178248D01*
X106475812Y-74232123D01*
X106448874Y-74312935D01*
X106287250Y-74474560D01*
X106206438Y-74501497D01*
X106152563Y-74501497D01*
X106718248Y-74151311D02*
X107149247Y-73720312D01*
X106933748Y-73235439D02*
X107122309Y-73046877D01*
X107499433Y-73262377D02*
X107230059Y-73531751D01*
X106664374Y-72966065D01*
X106933748Y-72696691D01*
X107741870Y-73019940D02*
X107176184Y-72454255D01*
X108065118Y-72696691D01*
X107499433Y-72131006D01*
X79181158Y-110253155D02*
X79100346Y-110280093D01*
X79019534Y-110360905D01*
X78965659Y-110468654D01*
X78965659Y-110576404D01*
X78992597Y-110657216D01*
X79073409Y-110791903D01*
X79154221Y-110872715D01*
X79288908Y-110953528D01*
X79369720Y-110980465D01*
X79477470Y-110980465D01*
X79585219Y-110926590D01*
X79639094Y-110872715D01*
X79692969Y-110764966D01*
X79692969Y-110711091D01*
X79504407Y-110522529D01*
X79396658Y-110630279D01*
X79989280Y-110522529D02*
X79423595Y-109956844D01*
X80312529Y-110199280D01*
X79746844Y-109633595D01*
X80581903Y-109929906D02*
X80016218Y-109364221D01*
X80150905Y-109229534D01*
X80258654Y-109175659D01*
X80366404Y-109175659D01*
X80447216Y-109202597D01*
X80581903Y-109283409D01*
X80662715Y-109364221D01*
X80743528Y-109498908D01*
X80770465Y-109579720D01*
X80770465Y-109687470D01*
X80716590Y-109795219D01*
X80581903Y-109929906D01*
X104792722Y-82301592D02*
X104711910Y-82328529D01*
X104631097Y-82409341D01*
X104577223Y-82517091D01*
X104577223Y-82624841D01*
X104604160Y-82705653D01*
X104684972Y-82840340D01*
X104765784Y-82921152D01*
X104900471Y-83001964D01*
X104981284Y-83028902D01*
X105089033Y-83028902D01*
X105196783Y-82975027D01*
X105250658Y-82921152D01*
X105304532Y-82813402D01*
X105304532Y-82759528D01*
X105115971Y-82570966D01*
X105008221Y-82678715D01*
X105600844Y-82570966D02*
X105035158Y-82005280D01*
X105250658Y-81789781D01*
X105331470Y-81762844D01*
X105385345Y-81762844D01*
X105466157Y-81789781D01*
X105546969Y-81870593D01*
X105573906Y-81951406D01*
X105573906Y-82005280D01*
X105546969Y-82086093D01*
X105331470Y-82301592D01*
X105627781Y-81520407D02*
X105627781Y-81466532D01*
X105654719Y-81385720D01*
X105789406Y-81251033D01*
X105870218Y-81224096D01*
X105924093Y-81224096D01*
X106004905Y-81251033D01*
X106058780Y-81304908D01*
X106112654Y-81412658D01*
X106112654Y-82059155D01*
X106462841Y-81708969D01*
X106462841Y-81062471D02*
X106382028Y-81089409D01*
X106328154Y-81089409D01*
X106247341Y-81062471D01*
X106220404Y-81035534D01*
X106193467Y-80954722D01*
X106193467Y-80900847D01*
X106220404Y-80820035D01*
X106328154Y-80712285D01*
X106408966Y-80685348D01*
X106462841Y-80685348D01*
X106543653Y-80712285D01*
X106570590Y-80739223D01*
X106597528Y-80820035D01*
X106597528Y-80873910D01*
X106570590Y-80954722D01*
X106462841Y-81062471D01*
X106435903Y-81143284D01*
X106435903Y-81197158D01*
X106462841Y-81277971D01*
X106570590Y-81385720D01*
X106651402Y-81412658D01*
X106705277Y-81412658D01*
X106786089Y-81385720D01*
X106893839Y-81277971D01*
X106920776Y-81197158D01*
X106920776Y-81143284D01*
X106893839Y-81062471D01*
X106786089Y-80954722D01*
X106705277Y-80927784D01*
X106651402Y-80927784D01*
X106570590Y-80954722D01*
X104615473Y-70124966D02*
X105369720Y-70502089D01*
X104992597Y-69747842D01*
X105692969Y-70124966D02*
X105800719Y-70071091D01*
X105935406Y-69936404D01*
X105962343Y-69855592D01*
X105962343Y-69801717D01*
X105935406Y-69720905D01*
X105881531Y-69667030D01*
X105800719Y-69640093D01*
X105746844Y-69640093D01*
X105666032Y-69667030D01*
X105531345Y-69747842D01*
X105450532Y-69774780D01*
X105396658Y-69774780D01*
X105315845Y-69747842D01*
X105261971Y-69693967D01*
X105235033Y-69613155D01*
X105235033Y-69559280D01*
X105261971Y-69478468D01*
X105396658Y-69343781D01*
X105504407Y-69289906D01*
X106123967Y-69209094D02*
X106393341Y-69478468D01*
X105639094Y-69101345D02*
X106123967Y-69209094D01*
X106016218Y-68724221D01*
X106716590Y-69101345D02*
X106824340Y-69047470D01*
X106959027Y-68912783D01*
X106985964Y-68831971D01*
X106985964Y-68778096D01*
X106959027Y-68697284D01*
X106905152Y-68643409D01*
X106824340Y-68616471D01*
X106770465Y-68616471D01*
X106689653Y-68643409D01*
X106554966Y-68724221D01*
X106474154Y-68751158D01*
X106420279Y-68751158D01*
X106339467Y-68724221D01*
X106285592Y-68670346D01*
X106258654Y-68589534D01*
X106258654Y-68535659D01*
X106285592Y-68454847D01*
X106420279Y-68320160D01*
X106528028Y-68266285D01*
X78684722Y-115575592D02*
X78603910Y-115602529D01*
X78523097Y-115683341D01*
X78469223Y-115791091D01*
X78469223Y-115898841D01*
X78496160Y-115979653D01*
X78576972Y-116114340D01*
X78657784Y-116195152D01*
X78792471Y-116275964D01*
X78873284Y-116302902D01*
X78981033Y-116302902D01*
X79088783Y-116249027D01*
X79142658Y-116195152D01*
X79196532Y-116087402D01*
X79196532Y-116033528D01*
X79007971Y-115844966D01*
X78900221Y-115952715D01*
X79492844Y-115844966D02*
X78927158Y-115279280D01*
X79142658Y-115063781D01*
X79223470Y-115036844D01*
X79277345Y-115036844D01*
X79358157Y-115063781D01*
X79438969Y-115144593D01*
X79465906Y-115225406D01*
X79465906Y-115279280D01*
X79438969Y-115360093D01*
X79223470Y-115575592D01*
X80354841Y-114982969D02*
X80031592Y-115306218D01*
X80193216Y-115144593D02*
X79627531Y-114578908D01*
X79654468Y-114713595D01*
X79654468Y-114821345D01*
X79627531Y-114902157D01*
X80300966Y-113905473D02*
X80031592Y-114174847D01*
X80274028Y-114471158D01*
X80274028Y-114417284D01*
X80300966Y-114336471D01*
X80435653Y-114201784D01*
X80516465Y-114174847D01*
X80570340Y-114174847D01*
X80651152Y-114201784D01*
X80785839Y-114336471D01*
X80812776Y-114417284D01*
X80812776Y-114471158D01*
X80785839Y-114551971D01*
X80651152Y-114686658D01*
X80570340Y-114713595D01*
X80516465Y-114713595D01*
X85185476Y-117578809D02*
X85299761Y-117616904D01*
X85490238Y-117616904D01*
X85566428Y-117578809D01*
X85604523Y-117540714D01*
X85642619Y-117464523D01*
X85642619Y-117388333D01*
X85604523Y-117312142D01*
X85566428Y-117274047D01*
X85490238Y-117235952D01*
X85337857Y-117197857D01*
X85261666Y-117159761D01*
X85223571Y-117121666D01*
X85185476Y-117045476D01*
X85185476Y-116969285D01*
X85223571Y-116893095D01*
X85261666Y-116855000D01*
X85337857Y-116816904D01*
X85528333Y-116816904D01*
X85642619Y-116855000D01*
X85909285Y-116816904D02*
X86099761Y-117616904D01*
X86252142Y-117045476D01*
X86404523Y-117616904D01*
X86595000Y-116816904D01*
X87356904Y-117540714D02*
X87318809Y-117578809D01*
X87204523Y-117616904D01*
X87128333Y-117616904D01*
X87014047Y-117578809D01*
X86937857Y-117502619D01*
X86899761Y-117426428D01*
X86861666Y-117274047D01*
X86861666Y-117159761D01*
X86899761Y-117007380D01*
X86937857Y-116931190D01*
X87014047Y-116855000D01*
X87128333Y-116816904D01*
X87204523Y-116816904D01*
X87318809Y-116855000D01*
X87356904Y-116893095D01*
X88080714Y-117616904D02*
X87699761Y-117616904D01*
X87699761Y-116816904D01*
X88347380Y-117616904D02*
X88347380Y-116816904D01*
X88804523Y-117616904D02*
X88461666Y-117159761D01*
X88804523Y-116816904D02*
X88347380Y-117274047D01*
X96599761Y-117578809D02*
X96714047Y-117616904D01*
X96904523Y-117616904D01*
X96980714Y-117578809D01*
X97018809Y-117540714D01*
X97056904Y-117464523D01*
X97056904Y-117388333D01*
X97018809Y-117312142D01*
X96980714Y-117274047D01*
X96904523Y-117235952D01*
X96752142Y-117197857D01*
X96675952Y-117159761D01*
X96637857Y-117121666D01*
X96599761Y-117045476D01*
X96599761Y-116969285D01*
X96637857Y-116893095D01*
X96675952Y-116855000D01*
X96752142Y-116816904D01*
X96942619Y-116816904D01*
X97056904Y-116855000D01*
X97323571Y-116816904D02*
X97514047Y-117616904D01*
X97666428Y-117045476D01*
X97818809Y-117616904D01*
X98009285Y-116816904D01*
X98314047Y-117616904D02*
X98314047Y-116816904D01*
X98504523Y-116816904D01*
X98618809Y-116855000D01*
X98695000Y-116931190D01*
X98733095Y-117007380D01*
X98771190Y-117159761D01*
X98771190Y-117274047D01*
X98733095Y-117426428D01*
X98695000Y-117502619D01*
X98618809Y-117578809D01*
X98504523Y-117616904D01*
X98314047Y-117616904D01*
X99114047Y-117616904D02*
X99114047Y-116816904D01*
X99647380Y-116816904D02*
X99799761Y-116816904D01*
X99875952Y-116855000D01*
X99952142Y-116931190D01*
X99990238Y-117083571D01*
X99990238Y-117350238D01*
X99952142Y-117502619D01*
X99875952Y-117578809D01*
X99799761Y-117616904D01*
X99647380Y-117616904D01*
X99571190Y-117578809D01*
X99495000Y-117502619D01*
X99456904Y-117350238D01*
X99456904Y-117083571D01*
X99495000Y-116931190D01*
X99571190Y-116855000D01*
X99647380Y-116816904D01*
X79208096Y-79746218D02*
X79127284Y-79773155D01*
X79046471Y-79853967D01*
X78992597Y-79961717D01*
X78992597Y-80069467D01*
X79019534Y-80150279D01*
X79100346Y-80284966D01*
X79181158Y-80365778D01*
X79315845Y-80446590D01*
X79396658Y-80473528D01*
X79504407Y-80473528D01*
X79612157Y-80419653D01*
X79666032Y-80365778D01*
X79719906Y-80258028D01*
X79719906Y-80204154D01*
X79531345Y-80015592D01*
X79423595Y-80123341D01*
X80016218Y-80015592D02*
X79450532Y-79449906D01*
X79666032Y-79234407D01*
X79746844Y-79207470D01*
X79800719Y-79207470D01*
X79881531Y-79234407D01*
X79962343Y-79315219D01*
X79989280Y-79396032D01*
X79989280Y-79449906D01*
X79962343Y-79530719D01*
X79746844Y-79746218D01*
X80447216Y-78830346D02*
X80824340Y-79207470D01*
X80097030Y-78749534D02*
X80366404Y-79288282D01*
X80716590Y-78938096D01*
X79181158Y-97553155D02*
X79100346Y-97580093D01*
X79019534Y-97660905D01*
X78965659Y-97768654D01*
X78965659Y-97876404D01*
X78992597Y-97957216D01*
X79073409Y-98091903D01*
X79154221Y-98172715D01*
X79288908Y-98253528D01*
X79369720Y-98280465D01*
X79477470Y-98280465D01*
X79585219Y-98226590D01*
X79639094Y-98172715D01*
X79692969Y-98064966D01*
X79692969Y-98011091D01*
X79504407Y-97822529D01*
X79396658Y-97930279D01*
X79989280Y-97822529D02*
X79423595Y-97256844D01*
X80312529Y-97499280D01*
X79746844Y-96933595D01*
X80581903Y-97229906D02*
X80016218Y-96664221D01*
X80150905Y-96529534D01*
X80258654Y-96475659D01*
X80366404Y-96475659D01*
X80447216Y-96502597D01*
X80581903Y-96583409D01*
X80662715Y-96664221D01*
X80743528Y-96798908D01*
X80770465Y-96879720D01*
X80770465Y-96987470D01*
X80716590Y-97095219D01*
X80581903Y-97229906D01*
X78638722Y-113035592D02*
X78557910Y-113062529D01*
X78477097Y-113143341D01*
X78423223Y-113251091D01*
X78423223Y-113358841D01*
X78450160Y-113439653D01*
X78530972Y-113574340D01*
X78611784Y-113655152D01*
X78746471Y-113735964D01*
X78827284Y-113762902D01*
X78935033Y-113762902D01*
X79042783Y-113709027D01*
X79096658Y-113655152D01*
X79150532Y-113547402D01*
X79150532Y-113493528D01*
X78961971Y-113304966D01*
X78854221Y-113412715D01*
X79446844Y-113304966D02*
X78881158Y-112739280D01*
X79096658Y-112523781D01*
X79177470Y-112496844D01*
X79231345Y-112496844D01*
X79312157Y-112523781D01*
X79392969Y-112604593D01*
X79419906Y-112685406D01*
X79419906Y-112739280D01*
X79392969Y-112820093D01*
X79177470Y-113035592D01*
X80308841Y-112442969D02*
X79985592Y-112766218D01*
X80147216Y-112604593D02*
X79581531Y-112038908D01*
X79608468Y-112173595D01*
X79608468Y-112281345D01*
X79581531Y-112362157D01*
X80416590Y-111580972D02*
X80793714Y-111958096D01*
X80066404Y-111500160D02*
X80335778Y-112038908D01*
X80685964Y-111688722D01*
X79181158Y-84853155D02*
X79100346Y-84880093D01*
X79019534Y-84960905D01*
X78965659Y-85068654D01*
X78965659Y-85176404D01*
X78992597Y-85257216D01*
X79073409Y-85391903D01*
X79154221Y-85472715D01*
X79288908Y-85553528D01*
X79369720Y-85580465D01*
X79477470Y-85580465D01*
X79585219Y-85526590D01*
X79639094Y-85472715D01*
X79692969Y-85364966D01*
X79692969Y-85311091D01*
X79504407Y-85122529D01*
X79396658Y-85230279D01*
X79989280Y-85122529D02*
X79423595Y-84556844D01*
X80312529Y-84799280D01*
X79746844Y-84233595D01*
X80581903Y-84529906D02*
X80016218Y-83964221D01*
X80150905Y-83829534D01*
X80258654Y-83775659D01*
X80366404Y-83775659D01*
X80447216Y-83802597D01*
X80581903Y-83883409D01*
X80662715Y-83964221D01*
X80743528Y-84098908D01*
X80770465Y-84179720D01*
X80770465Y-84287470D01*
X80716590Y-84395219D01*
X80581903Y-84529906D01*
X78538722Y-102875592D02*
X78457910Y-102902529D01*
X78377097Y-102983341D01*
X78323223Y-103091091D01*
X78323223Y-103198841D01*
X78350160Y-103279653D01*
X78430972Y-103414340D01*
X78511784Y-103495152D01*
X78646471Y-103575964D01*
X78727284Y-103602902D01*
X78835033Y-103602902D01*
X78942783Y-103549027D01*
X78996658Y-103495152D01*
X79050532Y-103387402D01*
X79050532Y-103333528D01*
X78861971Y-103144966D01*
X78754221Y-103252715D01*
X79346844Y-103144966D02*
X78781158Y-102579280D01*
X78996658Y-102363781D01*
X79077470Y-102336844D01*
X79131345Y-102336844D01*
X79212157Y-102363781D01*
X79292969Y-102444593D01*
X79319906Y-102525406D01*
X79319906Y-102579280D01*
X79292969Y-102660093D01*
X79077470Y-102875592D01*
X80208841Y-102282969D02*
X79885592Y-102606218D01*
X80047216Y-102444593D02*
X79481531Y-101878908D01*
X79508468Y-102013595D01*
X79508468Y-102121345D01*
X79481531Y-102202157D01*
X80747589Y-101744221D02*
X80424340Y-102067470D01*
X80585964Y-101905845D02*
X80020279Y-101340160D01*
X80047216Y-101474847D01*
X80047216Y-101582597D01*
X80020279Y-101663409D01*
X104792722Y-95255592D02*
X104711910Y-95282529D01*
X104631097Y-95363341D01*
X104577223Y-95471091D01*
X104577223Y-95578841D01*
X104604160Y-95659653D01*
X104684972Y-95794340D01*
X104765784Y-95875152D01*
X104900471Y-95955964D01*
X104981284Y-95982902D01*
X105089033Y-95982902D01*
X105196783Y-95929027D01*
X105250658Y-95875152D01*
X105304532Y-95767402D01*
X105304532Y-95713528D01*
X105115971Y-95524966D01*
X105008221Y-95632715D01*
X105600844Y-95524966D02*
X105035158Y-94959280D01*
X105250658Y-94743781D01*
X105331470Y-94716844D01*
X105385345Y-94716844D01*
X105466157Y-94743781D01*
X105546969Y-94824593D01*
X105573906Y-94905406D01*
X105573906Y-94959280D01*
X105546969Y-95040093D01*
X105331470Y-95255592D01*
X105627781Y-94474407D02*
X105627781Y-94420532D01*
X105654719Y-94339720D01*
X105789406Y-94205033D01*
X105870218Y-94178096D01*
X105924093Y-94178096D01*
X106004905Y-94205033D01*
X106058780Y-94258908D01*
X106112654Y-94366658D01*
X106112654Y-95013155D01*
X106462841Y-94662969D01*
X106166529Y-93935659D02*
X106166529Y-93881784D01*
X106193467Y-93800972D01*
X106328154Y-93666285D01*
X106408966Y-93639348D01*
X106462841Y-93639348D01*
X106543653Y-93666285D01*
X106597528Y-93720160D01*
X106651402Y-93827910D01*
X106651402Y-94474407D01*
X107001589Y-94124221D01*
X104584847Y-77545592D02*
X104935033Y-77195406D01*
X104961971Y-77599467D01*
X105042783Y-77518654D01*
X105123595Y-77491717D01*
X105177470Y-77491717D01*
X105258282Y-77518654D01*
X105392969Y-77653341D01*
X105419906Y-77734154D01*
X105419906Y-77788028D01*
X105392969Y-77868841D01*
X105231345Y-78030465D01*
X105150532Y-78057402D01*
X105096658Y-78057402D01*
X105096658Y-77033781D02*
X105850905Y-77410905D01*
X105473781Y-76656658D01*
X105608468Y-76521971D02*
X105958654Y-76171784D01*
X105985592Y-76575845D01*
X106066404Y-76495033D01*
X106147216Y-76468096D01*
X106201091Y-76468096D01*
X106281903Y-76495033D01*
X106416590Y-76629720D01*
X106443528Y-76710532D01*
X106443528Y-76764407D01*
X106416590Y-76845219D01*
X106254966Y-77006844D01*
X106174154Y-77033781D01*
X106120279Y-77033781D01*
X79208096Y-82286218D02*
X79127284Y-82313155D01*
X79046471Y-82393967D01*
X78992597Y-82501717D01*
X78992597Y-82609467D01*
X79019534Y-82690279D01*
X79100346Y-82824966D01*
X79181158Y-82905778D01*
X79315845Y-82986590D01*
X79396658Y-83013528D01*
X79504407Y-83013528D01*
X79612157Y-82959653D01*
X79666032Y-82905778D01*
X79719906Y-82798028D01*
X79719906Y-82744154D01*
X79531345Y-82555592D01*
X79423595Y-82663341D01*
X80016218Y-82555592D02*
X79450532Y-81989906D01*
X79666032Y-81774407D01*
X79746844Y-81747470D01*
X79800719Y-81747470D01*
X79881531Y-81774407D01*
X79962343Y-81855219D01*
X79989280Y-81936032D01*
X79989280Y-81989906D01*
X79962343Y-82070719D01*
X79746844Y-82286218D01*
X80285592Y-81154847D02*
X80016218Y-81424221D01*
X80258654Y-81720532D01*
X80258654Y-81666658D01*
X80285592Y-81585845D01*
X80420279Y-81451158D01*
X80501091Y-81424221D01*
X80554966Y-81424221D01*
X80635778Y-81451158D01*
X80770465Y-81585845D01*
X80797402Y-81666658D01*
X80797402Y-81720532D01*
X80770465Y-81801345D01*
X80635778Y-81936032D01*
X80554966Y-81962969D01*
X80501091Y-81962969D01*
X79181158Y-72153155D02*
X79100346Y-72180093D01*
X79019534Y-72260905D01*
X78965659Y-72368654D01*
X78965659Y-72476404D01*
X78992597Y-72557216D01*
X79073409Y-72691903D01*
X79154221Y-72772715D01*
X79288908Y-72853528D01*
X79369720Y-72880465D01*
X79477470Y-72880465D01*
X79585219Y-72826590D01*
X79639094Y-72772715D01*
X79692969Y-72664966D01*
X79692969Y-72611091D01*
X79504407Y-72422529D01*
X79396658Y-72530279D01*
X79989280Y-72422529D02*
X79423595Y-71856844D01*
X80312529Y-72099280D01*
X79746844Y-71533595D01*
X80581903Y-71829906D02*
X80016218Y-71264221D01*
X80150905Y-71129534D01*
X80258654Y-71075659D01*
X80366404Y-71075659D01*
X80447216Y-71102597D01*
X80581903Y-71183409D01*
X80662715Y-71264221D01*
X80743528Y-71398908D01*
X80770465Y-71479720D01*
X80770465Y-71587470D01*
X80716590Y-71695219D01*
X80581903Y-71829906D01*
X78684722Y-107955592D02*
X78603910Y-107982529D01*
X78523097Y-108063341D01*
X78469223Y-108171091D01*
X78469223Y-108278841D01*
X78496160Y-108359653D01*
X78576972Y-108494340D01*
X78657784Y-108575152D01*
X78792471Y-108655964D01*
X78873284Y-108682902D01*
X78981033Y-108682902D01*
X79088783Y-108629027D01*
X79142658Y-108575152D01*
X79196532Y-108467402D01*
X79196532Y-108413528D01*
X79007971Y-108224966D01*
X78900221Y-108332715D01*
X79492844Y-108224966D02*
X78927158Y-107659280D01*
X79142658Y-107443781D01*
X79223470Y-107416844D01*
X79277345Y-107416844D01*
X79358157Y-107443781D01*
X79438969Y-107524593D01*
X79465906Y-107605406D01*
X79465906Y-107659280D01*
X79438969Y-107740093D01*
X79223470Y-107955592D01*
X80354841Y-107362969D02*
X80031592Y-107686218D01*
X80193216Y-107524593D02*
X79627531Y-106958908D01*
X79654468Y-107093595D01*
X79654468Y-107201345D01*
X79627531Y-107282157D01*
X79977717Y-106608722D02*
X80327903Y-106258536D01*
X80354841Y-106662597D01*
X80435653Y-106581784D01*
X80516465Y-106554847D01*
X80570340Y-106554847D01*
X80651152Y-106581784D01*
X80785839Y-106716471D01*
X80812776Y-106797284D01*
X80812776Y-106851158D01*
X80785839Y-106931971D01*
X80624215Y-107093595D01*
X80543402Y-107120532D01*
X80489528Y-107120532D01*
X104792722Y-105415592D02*
X104711910Y-105442529D01*
X104631097Y-105523341D01*
X104577223Y-105631091D01*
X104577223Y-105738841D01*
X104604160Y-105819653D01*
X104684972Y-105954340D01*
X104765784Y-106035152D01*
X104900471Y-106115964D01*
X104981284Y-106142902D01*
X105089033Y-106142902D01*
X105196783Y-106089027D01*
X105250658Y-106035152D01*
X105304532Y-105927402D01*
X105304532Y-105873528D01*
X105115971Y-105684966D01*
X105008221Y-105792715D01*
X105600844Y-105684966D02*
X105035158Y-105119280D01*
X105250658Y-104903781D01*
X105331470Y-104876844D01*
X105385345Y-104876844D01*
X105466157Y-104903781D01*
X105546969Y-104984593D01*
X105573906Y-105065406D01*
X105573906Y-105119280D01*
X105546969Y-105200093D01*
X105331470Y-105415592D01*
X106462841Y-104822969D02*
X106139592Y-105146218D01*
X106301216Y-104984593D02*
X105735531Y-104418908D01*
X105762468Y-104553595D01*
X105762468Y-104661345D01*
X105735531Y-104742157D01*
X106732215Y-104553595D02*
X106839964Y-104445845D01*
X106866902Y-104365033D01*
X106866902Y-104311158D01*
X106839964Y-104176471D01*
X106759152Y-104041784D01*
X106543653Y-103826285D01*
X106462841Y-103799348D01*
X106408966Y-103799348D01*
X106328154Y-103826285D01*
X106220404Y-103934035D01*
X106193467Y-104014847D01*
X106193467Y-104068722D01*
X106220404Y-104149534D01*
X106355091Y-104284221D01*
X106435903Y-104311158D01*
X106489778Y-104311158D01*
X106570590Y-104284221D01*
X106678340Y-104176471D01*
X106705277Y-104095659D01*
X106705277Y-104041784D01*
X106678340Y-103960972D01*
X104792722Y-115575592D02*
X104711910Y-115602529D01*
X104631097Y-115683341D01*
X104577223Y-115791091D01*
X104577223Y-115898841D01*
X104604160Y-115979653D01*
X104684972Y-116114340D01*
X104765784Y-116195152D01*
X104900471Y-116275964D01*
X104981284Y-116302902D01*
X105089033Y-116302902D01*
X105196783Y-116249027D01*
X105250658Y-116195152D01*
X105304532Y-116087402D01*
X105304532Y-116033528D01*
X105115971Y-115844966D01*
X105008221Y-115952715D01*
X105600844Y-115844966D02*
X105035158Y-115279280D01*
X105250658Y-115063781D01*
X105331470Y-115036844D01*
X105385345Y-115036844D01*
X105466157Y-115063781D01*
X105546969Y-115144593D01*
X105573906Y-115225406D01*
X105573906Y-115279280D01*
X105546969Y-115360093D01*
X105331470Y-115575592D01*
X106462841Y-114982969D02*
X106139592Y-115306218D01*
X106301216Y-115144593D02*
X105735531Y-114578908D01*
X105762468Y-114713595D01*
X105762468Y-114821345D01*
X105735531Y-114902157D01*
X106382028Y-113932410D02*
X106274279Y-114040160D01*
X106247341Y-114120972D01*
X106247341Y-114174847D01*
X106274279Y-114309534D01*
X106355091Y-114444221D01*
X106570590Y-114659720D01*
X106651402Y-114686658D01*
X106705277Y-114686658D01*
X106786089Y-114659720D01*
X106893839Y-114551971D01*
X106920776Y-114471158D01*
X106920776Y-114417284D01*
X106893839Y-114336471D01*
X106759152Y-114201784D01*
X106678340Y-114174847D01*
X106624465Y-114174847D01*
X106543653Y-114201784D01*
X106435903Y-114309534D01*
X106408966Y-114390346D01*
X106408966Y-114444221D01*
X106435903Y-114525033D01*
X105533375Y-92998435D02*
X105075439Y-92917622D01*
X105210126Y-93321683D02*
X104644441Y-92755998D01*
X104859940Y-92540499D01*
X104940752Y-92513561D01*
X104994627Y-92513561D01*
X105075439Y-92540499D01*
X105156251Y-92621311D01*
X105183189Y-92702123D01*
X105183189Y-92755998D01*
X105156251Y-92836810D01*
X104940752Y-93052309D01*
X105210126Y-92190312D02*
X105668062Y-92648248D01*
X105748874Y-92675186D01*
X105802749Y-92675186D01*
X105883561Y-92648248D01*
X105991311Y-92540499D01*
X106018248Y-92459687D01*
X106018248Y-92405812D01*
X105991311Y-92325000D01*
X105533375Y-91867064D01*
X106368435Y-92163375D02*
X105802749Y-91597690D01*
X106691683Y-91840126D01*
X106125998Y-91274441D01*
X104781158Y-110253155D02*
X104700346Y-110280093D01*
X104619534Y-110360905D01*
X104565659Y-110468654D01*
X104565659Y-110576404D01*
X104592597Y-110657216D01*
X104673409Y-110791903D01*
X104754221Y-110872715D01*
X104888908Y-110953528D01*
X104969720Y-110980465D01*
X105077470Y-110980465D01*
X105185219Y-110926590D01*
X105239094Y-110872715D01*
X105292969Y-110764966D01*
X105292969Y-110711091D01*
X105104407Y-110522529D01*
X104996658Y-110630279D01*
X105589280Y-110522529D02*
X105023595Y-109956844D01*
X105912529Y-110199280D01*
X105346844Y-109633595D01*
X106181903Y-109929906D02*
X105616218Y-109364221D01*
X105750905Y-109229534D01*
X105858654Y-109175659D01*
X105966404Y-109175659D01*
X106047216Y-109202597D01*
X106181903Y-109283409D01*
X106262715Y-109364221D01*
X106343528Y-109498908D01*
X106370465Y-109579720D01*
X106370465Y-109687470D01*
X106316590Y-109795219D01*
X106181903Y-109929906D01*
X104849788Y-80588773D02*
X105119162Y-80319399D01*
X104957537Y-80804272D02*
X104580414Y-80050025D01*
X105334661Y-80427149D01*
X105523223Y-80238587D02*
X104957537Y-79672902D01*
X105092224Y-79538215D01*
X105199974Y-79484340D01*
X105307723Y-79484340D01*
X105388536Y-79511277D01*
X105523223Y-79592089D01*
X105604035Y-79672902D01*
X105684847Y-79807589D01*
X105711784Y-79888401D01*
X105711784Y-79996150D01*
X105657910Y-80103900D01*
X105523223Y-80238587D01*
X106358282Y-79295778D02*
X106358282Y-79349653D01*
X106304407Y-79457402D01*
X106250532Y-79511277D01*
X106142783Y-79565152D01*
X106035033Y-79565152D01*
X105954221Y-79538215D01*
X105819534Y-79457402D01*
X105738722Y-79376590D01*
X105657910Y-79241903D01*
X105630972Y-79161091D01*
X105630972Y-79053341D01*
X105684847Y-78945592D01*
X105738722Y-78891717D01*
X105846471Y-78837842D01*
X105900346Y-78837842D01*
X106573781Y-79295778D02*
X107004780Y-78864780D01*
X106439094Y-78191345D02*
X107193341Y-78568468D01*
X106816218Y-77814221D01*
X107893714Y-77868096D02*
X107435778Y-77787284D01*
X107570465Y-78191345D02*
X107004780Y-77625659D01*
X107220279Y-77410160D01*
X107301091Y-77383223D01*
X107354966Y-77383223D01*
X107435778Y-77410160D01*
X107516590Y-77490972D01*
X107543528Y-77571784D01*
X107543528Y-77625659D01*
X107516590Y-77706471D01*
X107301091Y-77921971D01*
X107839839Y-77329348D02*
X108028401Y-77140786D01*
X108405524Y-77356285D02*
X108136150Y-77625659D01*
X107570465Y-77059974D01*
X107839839Y-76790600D01*
X108540211Y-76628975D02*
X108351650Y-76817537D01*
X108647961Y-77113849D02*
X108082276Y-76548163D01*
X108351650Y-76278789D01*
X78538722Y-105415592D02*
X78457910Y-105442529D01*
X78377097Y-105523341D01*
X78323223Y-105631091D01*
X78323223Y-105738841D01*
X78350160Y-105819653D01*
X78430972Y-105954340D01*
X78511784Y-106035152D01*
X78646471Y-106115964D01*
X78727284Y-106142902D01*
X78835033Y-106142902D01*
X78942783Y-106089027D01*
X78996658Y-106035152D01*
X79050532Y-105927402D01*
X79050532Y-105873528D01*
X78861971Y-105684966D01*
X78754221Y-105792715D01*
X79346844Y-105684966D02*
X78781158Y-105119280D01*
X78996658Y-104903781D01*
X79077470Y-104876844D01*
X79131345Y-104876844D01*
X79212157Y-104903781D01*
X79292969Y-104984593D01*
X79319906Y-105065406D01*
X79319906Y-105119280D01*
X79292969Y-105200093D01*
X79077470Y-105415592D01*
X80208841Y-104822969D02*
X79885592Y-105146218D01*
X80047216Y-104984593D02*
X79481531Y-104418908D01*
X79508468Y-104553595D01*
X79508468Y-104661345D01*
X79481531Y-104742157D01*
X79912529Y-104095659D02*
X79912529Y-104041784D01*
X79939467Y-103960972D01*
X80074154Y-103826285D01*
X80154966Y-103799348D01*
X80208841Y-103799348D01*
X80289653Y-103826285D01*
X80343528Y-103880160D01*
X80397402Y-103987910D01*
X80397402Y-104634407D01*
X80747589Y-104284221D01*
X79108096Y-74666218D02*
X79027284Y-74693155D01*
X78946471Y-74773967D01*
X78892597Y-74881717D01*
X78892597Y-74989467D01*
X78919534Y-75070279D01*
X79000346Y-75204966D01*
X79081158Y-75285778D01*
X79215845Y-75366590D01*
X79296658Y-75393528D01*
X79404407Y-75393528D01*
X79512157Y-75339653D01*
X79566032Y-75285778D01*
X79619906Y-75178028D01*
X79619906Y-75124154D01*
X79431345Y-74935592D01*
X79323595Y-75043341D01*
X79916218Y-74935592D02*
X79350532Y-74369906D01*
X79566032Y-74154407D01*
X79646844Y-74127470D01*
X79700719Y-74127470D01*
X79781531Y-74154407D01*
X79862343Y-74235219D01*
X79889280Y-74316032D01*
X79889280Y-74369906D01*
X79862343Y-74450719D01*
X79646844Y-74666218D01*
X79943155Y-73885033D02*
X79943155Y-73831158D01*
X79970093Y-73750346D01*
X80104780Y-73615659D01*
X80185592Y-73588722D01*
X80239467Y-73588722D01*
X80320279Y-73615659D01*
X80374154Y-73669534D01*
X80428028Y-73777284D01*
X80428028Y-74423781D01*
X80778215Y-74073595D01*
X104792722Y-113035592D02*
X104711910Y-113062529D01*
X104631097Y-113143341D01*
X104577223Y-113251091D01*
X104577223Y-113358841D01*
X104604160Y-113439653D01*
X104684972Y-113574340D01*
X104765784Y-113655152D01*
X104900471Y-113735964D01*
X104981284Y-113762902D01*
X105089033Y-113762902D01*
X105196783Y-113709027D01*
X105250658Y-113655152D01*
X105304532Y-113547402D01*
X105304532Y-113493528D01*
X105115971Y-113304966D01*
X105008221Y-113412715D01*
X105600844Y-113304966D02*
X105035158Y-112739280D01*
X105250658Y-112523781D01*
X105331470Y-112496844D01*
X105385345Y-112496844D01*
X105466157Y-112523781D01*
X105546969Y-112604593D01*
X105573906Y-112685406D01*
X105573906Y-112739280D01*
X105546969Y-112820093D01*
X105331470Y-113035592D01*
X106462841Y-112442969D02*
X106139592Y-112766218D01*
X106301216Y-112604593D02*
X105735531Y-112038908D01*
X105762468Y-112173595D01*
X105762468Y-112281345D01*
X105735531Y-112362157D01*
X106085717Y-111688722D02*
X106462841Y-111311598D01*
X106786089Y-112119720D01*
X79208096Y-94986218D02*
X79127284Y-95013155D01*
X79046471Y-95093967D01*
X78992597Y-95201717D01*
X78992597Y-95309467D01*
X79019534Y-95390279D01*
X79100346Y-95524966D01*
X79181158Y-95605778D01*
X79315845Y-95686590D01*
X79396658Y-95713528D01*
X79504407Y-95713528D01*
X79612157Y-95659653D01*
X79666032Y-95605778D01*
X79719906Y-95498028D01*
X79719906Y-95444154D01*
X79531345Y-95255592D01*
X79423595Y-95363341D01*
X80016218Y-95255592D02*
X79450532Y-94689906D01*
X79666032Y-94474407D01*
X79746844Y-94447470D01*
X79800719Y-94447470D01*
X79881531Y-94474407D01*
X79962343Y-94555219D01*
X79989280Y-94636032D01*
X79989280Y-94689906D01*
X79962343Y-94770719D01*
X79746844Y-94986218D01*
X80608841Y-94662969D02*
X80716590Y-94555219D01*
X80743528Y-94474407D01*
X80743528Y-94420532D01*
X80716590Y-94285845D01*
X80635778Y-94151158D01*
X80420279Y-93935659D01*
X80339467Y-93908722D01*
X80285592Y-93908722D01*
X80204780Y-93935659D01*
X80097030Y-94043409D01*
X80070093Y-94124221D01*
X80070093Y-94178096D01*
X80097030Y-94258908D01*
X80231717Y-94393595D01*
X80312529Y-94420532D01*
X80366404Y-94420532D01*
X80447216Y-94393595D01*
X80554966Y-94285845D01*
X80581903Y-94205033D01*
X80581903Y-94151158D01*
X80554966Y-94070346D01*
X104792722Y-107955592D02*
X104711910Y-107982529D01*
X104631097Y-108063341D01*
X104577223Y-108171091D01*
X104577223Y-108278841D01*
X104604160Y-108359653D01*
X104684972Y-108494340D01*
X104765784Y-108575152D01*
X104900471Y-108655964D01*
X104981284Y-108682902D01*
X105089033Y-108682902D01*
X105196783Y-108629027D01*
X105250658Y-108575152D01*
X105304532Y-108467402D01*
X105304532Y-108413528D01*
X105115971Y-108224966D01*
X105008221Y-108332715D01*
X105600844Y-108224966D02*
X105035158Y-107659280D01*
X105250658Y-107443781D01*
X105331470Y-107416844D01*
X105385345Y-107416844D01*
X105466157Y-107443781D01*
X105546969Y-107524593D01*
X105573906Y-107605406D01*
X105573906Y-107659280D01*
X105546969Y-107740093D01*
X105331470Y-107955592D01*
X106462841Y-107362969D02*
X106139592Y-107686218D01*
X106301216Y-107524593D02*
X105735531Y-106958908D01*
X105762468Y-107093595D01*
X105762468Y-107201345D01*
X105735531Y-107282157D01*
X106462841Y-106716471D02*
X106382028Y-106743409D01*
X106328154Y-106743409D01*
X106247341Y-106716471D01*
X106220404Y-106689534D01*
X106193467Y-106608722D01*
X106193467Y-106554847D01*
X106220404Y-106474035D01*
X106328154Y-106366285D01*
X106408966Y-106339348D01*
X106462841Y-106339348D01*
X106543653Y-106366285D01*
X106570590Y-106393223D01*
X106597528Y-106474035D01*
X106597528Y-106527910D01*
X106570590Y-106608722D01*
X106462841Y-106716471D01*
X106435903Y-106797284D01*
X106435903Y-106851158D01*
X106462841Y-106931971D01*
X106570590Y-107039720D01*
X106651402Y-107066658D01*
X106705277Y-107066658D01*
X106786089Y-107039720D01*
X106893839Y-106931971D01*
X106920776Y-106851158D01*
X106920776Y-106797284D01*
X106893839Y-106716471D01*
X106786089Y-106608722D01*
X106705277Y-106581784D01*
X106651402Y-106581784D01*
X106570590Y-106608722D01*
X104648129Y-67582309D02*
X105402377Y-67959433D01*
X105025253Y-67205186D01*
X105671751Y-67097436D02*
X105779500Y-67043561D01*
X105833375Y-67043561D01*
X105914187Y-67070499D01*
X105994999Y-67151311D01*
X106021937Y-67232123D01*
X106021937Y-67285998D01*
X105995000Y-67366810D01*
X105779500Y-67582309D01*
X105213815Y-67016624D01*
X105402377Y-66828062D01*
X105483189Y-66801125D01*
X105537064Y-66801125D01*
X105617876Y-66828062D01*
X105671751Y-66881937D01*
X105698688Y-66962749D01*
X105698688Y-67016624D01*
X105671751Y-67097436D01*
X105483189Y-67285998D01*
X105779500Y-66450938D02*
X106237436Y-66908874D01*
X106318248Y-66935812D01*
X106372123Y-66935812D01*
X106452935Y-66908874D01*
X106560685Y-66801125D01*
X106587622Y-66720312D01*
X106587622Y-66666438D01*
X106560685Y-66585625D01*
X106102749Y-66127690D01*
X106883934Y-66424001D02*
X106991683Y-66370126D01*
X107126370Y-66235439D01*
X107153308Y-66154627D01*
X107153308Y-66100752D01*
X107126370Y-66019940D01*
X107072496Y-65966065D01*
X106991683Y-65939128D01*
X106937809Y-65939128D01*
X106856996Y-65966065D01*
X106722309Y-66046877D01*
X106641497Y-66073815D01*
X106587622Y-66073815D01*
X106506810Y-66046877D01*
X106452935Y-65993003D01*
X106425998Y-65912190D01*
X106425998Y-65858316D01*
X106452935Y-65777503D01*
X106587622Y-65642816D01*
X106695372Y-65588942D01*
X104792722Y-100345592D02*
X104711910Y-100372529D01*
X104631097Y-100453341D01*
X104577223Y-100561091D01*
X104577223Y-100668841D01*
X104604160Y-100749653D01*
X104684972Y-100884340D01*
X104765784Y-100965152D01*
X104900471Y-101045964D01*
X104981284Y-101072902D01*
X105089033Y-101072902D01*
X105196783Y-101019027D01*
X105250658Y-100965152D01*
X105304532Y-100857402D01*
X105304532Y-100803528D01*
X105115971Y-100614966D01*
X105008221Y-100722715D01*
X105600844Y-100614966D02*
X105035158Y-100049280D01*
X105250658Y-99833781D01*
X105331470Y-99806844D01*
X105385345Y-99806844D01*
X105466157Y-99833781D01*
X105546969Y-99914593D01*
X105573906Y-99995406D01*
X105573906Y-100049280D01*
X105546969Y-100130093D01*
X105331470Y-100345592D01*
X105627781Y-99564407D02*
X105627781Y-99510532D01*
X105654719Y-99429720D01*
X105789406Y-99295033D01*
X105870218Y-99268096D01*
X105924093Y-99268096D01*
X106004905Y-99295033D01*
X106058780Y-99348908D01*
X106112654Y-99456658D01*
X106112654Y-100103155D01*
X106462841Y-99752969D01*
X107001589Y-99214221D02*
X106678340Y-99537470D01*
X106839964Y-99375845D02*
X106274279Y-98810160D01*
X106301216Y-98944847D01*
X106301216Y-99052597D01*
X106274279Y-99133409D01*
X104781158Y-97553155D02*
X104700346Y-97580093D01*
X104619534Y-97660905D01*
X104565659Y-97768654D01*
X104565659Y-97876404D01*
X104592597Y-97957216D01*
X104673409Y-98091903D01*
X104754221Y-98172715D01*
X104888908Y-98253528D01*
X104969720Y-98280465D01*
X105077470Y-98280465D01*
X105185219Y-98226590D01*
X105239094Y-98172715D01*
X105292969Y-98064966D01*
X105292969Y-98011091D01*
X105104407Y-97822529D01*
X104996658Y-97930279D01*
X105589280Y-97822529D02*
X105023595Y-97256844D01*
X105912529Y-97499280D01*
X105346844Y-96933595D01*
X106181903Y-97229906D02*
X105616218Y-96664221D01*
X105750905Y-96529534D01*
X105858654Y-96475659D01*
X105966404Y-96475659D01*
X106047216Y-96502597D01*
X106181903Y-96583409D01*
X106262715Y-96664221D01*
X106343528Y-96798908D01*
X106370465Y-96879720D01*
X106370465Y-96987470D01*
X106316590Y-97095219D01*
X106181903Y-97229906D01*
X104792722Y-87645592D02*
X104711910Y-87672529D01*
X104631097Y-87753341D01*
X104577223Y-87861091D01*
X104577223Y-87968841D01*
X104604160Y-88049653D01*
X104684972Y-88184340D01*
X104765784Y-88265152D01*
X104900471Y-88345964D01*
X104981284Y-88372902D01*
X105089033Y-88372902D01*
X105196783Y-88319027D01*
X105250658Y-88265152D01*
X105304532Y-88157402D01*
X105304532Y-88103528D01*
X105115971Y-87914966D01*
X105008221Y-88022715D01*
X105600844Y-87914966D02*
X105035158Y-87349280D01*
X105250658Y-87133781D01*
X105331470Y-87106844D01*
X105385345Y-87106844D01*
X105466157Y-87133781D01*
X105546969Y-87214593D01*
X105573906Y-87295406D01*
X105573906Y-87349280D01*
X105546969Y-87430093D01*
X105331470Y-87645592D01*
X105627781Y-86864407D02*
X105627781Y-86810532D01*
X105654719Y-86729720D01*
X105789406Y-86595033D01*
X105870218Y-86568096D01*
X105924093Y-86568096D01*
X106004905Y-86595033D01*
X106058780Y-86648908D01*
X106112654Y-86756658D01*
X106112654Y-87403155D01*
X106462841Y-87052969D01*
X106085717Y-86298722D02*
X106462841Y-85921598D01*
X106786089Y-86729720D01*
X79108096Y-69576218D02*
X79027284Y-69603155D01*
X78946471Y-69683967D01*
X78892597Y-69791717D01*
X78892597Y-69899467D01*
X78919534Y-69980279D01*
X79000346Y-70114966D01*
X79081158Y-70195778D01*
X79215845Y-70276590D01*
X79296658Y-70303528D01*
X79404407Y-70303528D01*
X79512157Y-70249653D01*
X79566032Y-70195778D01*
X79619906Y-70088028D01*
X79619906Y-70034154D01*
X79431345Y-69845592D01*
X79323595Y-69953341D01*
X79916218Y-69845592D02*
X79350532Y-69279906D01*
X79566032Y-69064407D01*
X79646844Y-69037470D01*
X79700719Y-69037470D01*
X79781531Y-69064407D01*
X79862343Y-69145219D01*
X79889280Y-69226032D01*
X79889280Y-69279906D01*
X79862343Y-69360719D01*
X79646844Y-69576218D01*
X80778215Y-68983595D02*
X80454966Y-69306844D01*
X80616590Y-69145219D02*
X80050905Y-68579534D01*
X80077842Y-68714221D01*
X80077842Y-68821971D01*
X80050905Y-68902783D01*
X78684722Y-100335592D02*
X78603910Y-100362529D01*
X78523097Y-100443341D01*
X78469223Y-100551091D01*
X78469223Y-100658841D01*
X78496160Y-100739653D01*
X78576972Y-100874340D01*
X78657784Y-100955152D01*
X78792471Y-101035964D01*
X78873284Y-101062902D01*
X78981033Y-101062902D01*
X79088783Y-101009027D01*
X79142658Y-100955152D01*
X79196532Y-100847402D01*
X79196532Y-100793528D01*
X79007971Y-100604966D01*
X78900221Y-100712715D01*
X79492844Y-100604966D02*
X78927158Y-100039280D01*
X79142658Y-99823781D01*
X79223470Y-99796844D01*
X79277345Y-99796844D01*
X79358157Y-99823781D01*
X79438969Y-99904593D01*
X79465906Y-99985406D01*
X79465906Y-100039280D01*
X79438969Y-100120093D01*
X79223470Y-100335592D01*
X80354841Y-99742969D02*
X80031592Y-100066218D01*
X80193216Y-99904593D02*
X79627531Y-99338908D01*
X79654468Y-99473595D01*
X79654468Y-99581345D01*
X79627531Y-99662157D01*
X80139341Y-98827097D02*
X80193216Y-98773223D01*
X80274028Y-98746285D01*
X80327903Y-98746285D01*
X80408715Y-98773223D01*
X80543402Y-98854035D01*
X80678089Y-98988722D01*
X80758902Y-99123409D01*
X80785839Y-99204221D01*
X80785839Y-99258096D01*
X80758902Y-99338908D01*
X80705027Y-99392783D01*
X80624215Y-99419720D01*
X80570340Y-99419720D01*
X80489528Y-99392783D01*
X80354841Y-99311971D01*
X80220154Y-99177284D01*
X80139341Y-99042597D01*
X80112404Y-98961784D01*
X80112404Y-98907910D01*
X80139341Y-98827097D01*
X79208096Y-92446218D02*
X79127284Y-92473155D01*
X79046471Y-92553967D01*
X78992597Y-92661717D01*
X78992597Y-92769467D01*
X79019534Y-92850279D01*
X79100346Y-92984966D01*
X79181158Y-93065778D01*
X79315845Y-93146590D01*
X79396658Y-93173528D01*
X79504407Y-93173528D01*
X79612157Y-93119653D01*
X79666032Y-93065778D01*
X79719906Y-92958028D01*
X79719906Y-92904154D01*
X79531345Y-92715592D01*
X79423595Y-92823341D01*
X80016218Y-92715592D02*
X79450532Y-92149906D01*
X79666032Y-91934407D01*
X79746844Y-91907470D01*
X79800719Y-91907470D01*
X79881531Y-91934407D01*
X79962343Y-92015219D01*
X79989280Y-92096032D01*
X79989280Y-92149906D01*
X79962343Y-92230719D01*
X79746844Y-92446218D01*
X80339467Y-91745845D02*
X80258654Y-91772783D01*
X80204780Y-91772783D01*
X80123967Y-91745845D01*
X80097030Y-91718908D01*
X80070093Y-91638096D01*
X80070093Y-91584221D01*
X80097030Y-91503409D01*
X80204780Y-91395659D01*
X80285592Y-91368722D01*
X80339467Y-91368722D01*
X80420279Y-91395659D01*
X80447216Y-91422597D01*
X80474154Y-91503409D01*
X80474154Y-91557284D01*
X80447216Y-91638096D01*
X80339467Y-91745845D01*
X80312529Y-91826658D01*
X80312529Y-91880532D01*
X80339467Y-91961345D01*
X80447216Y-92069094D01*
X80528028Y-92096032D01*
X80581903Y-92096032D01*
X80662715Y-92069094D01*
X80770465Y-91961345D01*
X80797402Y-91880532D01*
X80797402Y-91826658D01*
X80770465Y-91745845D01*
X80662715Y-91638096D01*
X80581903Y-91611158D01*
X80528028Y-91611158D01*
X80447216Y-91638096D01*
X104792722Y-90175592D02*
X104711910Y-90202529D01*
X104631097Y-90283341D01*
X104577223Y-90391091D01*
X104577223Y-90498841D01*
X104604160Y-90579653D01*
X104684972Y-90714340D01*
X104765784Y-90795152D01*
X104900471Y-90875964D01*
X104981284Y-90902902D01*
X105089033Y-90902902D01*
X105196783Y-90849027D01*
X105250658Y-90795152D01*
X105304532Y-90687402D01*
X105304532Y-90633528D01*
X105115971Y-90444966D01*
X105008221Y-90552715D01*
X105600844Y-90444966D02*
X105035158Y-89879280D01*
X105250658Y-89663781D01*
X105331470Y-89636844D01*
X105385345Y-89636844D01*
X105466157Y-89663781D01*
X105546969Y-89744593D01*
X105573906Y-89825406D01*
X105573906Y-89879280D01*
X105546969Y-89960093D01*
X105331470Y-90175592D01*
X105627781Y-89394407D02*
X105627781Y-89340532D01*
X105654719Y-89259720D01*
X105789406Y-89125033D01*
X105870218Y-89098096D01*
X105924093Y-89098096D01*
X106004905Y-89125033D01*
X106058780Y-89178908D01*
X106112654Y-89286658D01*
X106112654Y-89933155D01*
X106462841Y-89582969D01*
X106382028Y-88532410D02*
X106274279Y-88640160D01*
X106247341Y-88720972D01*
X106247341Y-88774847D01*
X106274279Y-88909534D01*
X106355091Y-89044221D01*
X106570590Y-89259720D01*
X106651402Y-89286658D01*
X106705277Y-89286658D01*
X106786089Y-89259720D01*
X106893839Y-89151971D01*
X106920776Y-89071158D01*
X106920776Y-89017284D01*
X106893839Y-88936471D01*
X106759152Y-88801784D01*
X106678340Y-88774847D01*
X106624465Y-88774847D01*
X106543653Y-88801784D01*
X106435903Y-88909534D01*
X106408966Y-88990346D01*
X106408966Y-89044221D01*
X106435903Y-89125033D01*
X79208096Y-87366218D02*
X79127284Y-87393155D01*
X79046471Y-87473967D01*
X78992597Y-87581717D01*
X78992597Y-87689467D01*
X79019534Y-87770279D01*
X79100346Y-87904966D01*
X79181158Y-87985778D01*
X79315845Y-88066590D01*
X79396658Y-88093528D01*
X79504407Y-88093528D01*
X79612157Y-88039653D01*
X79666032Y-87985778D01*
X79719906Y-87878028D01*
X79719906Y-87824154D01*
X79531345Y-87635592D01*
X79423595Y-87743341D01*
X80016218Y-87635592D02*
X79450532Y-87069906D01*
X79666032Y-86854407D01*
X79746844Y-86827470D01*
X79800719Y-86827470D01*
X79881531Y-86854407D01*
X79962343Y-86935219D01*
X79989280Y-87016032D01*
X79989280Y-87069906D01*
X79962343Y-87150719D01*
X79746844Y-87366218D01*
X80258654Y-86261784D02*
X80150905Y-86369534D01*
X80123967Y-86450346D01*
X80123967Y-86504221D01*
X80150905Y-86638908D01*
X80231717Y-86773595D01*
X80447216Y-86989094D01*
X80528028Y-87016032D01*
X80581903Y-87016032D01*
X80662715Y-86989094D01*
X80770465Y-86881345D01*
X80797402Y-86800532D01*
X80797402Y-86746658D01*
X80770465Y-86665845D01*
X80635778Y-86531158D01*
X80554966Y-86504221D01*
X80501091Y-86504221D01*
X80420279Y-86531158D01*
X80312529Y-86638908D01*
X80285592Y-86719720D01*
X80285592Y-86773595D01*
X80312529Y-86854407D01*
X79308096Y-89876218D02*
X79227284Y-89903155D01*
X79146471Y-89983967D01*
X79092597Y-90091717D01*
X79092597Y-90199467D01*
X79119534Y-90280279D01*
X79200346Y-90414966D01*
X79281158Y-90495778D01*
X79415845Y-90576590D01*
X79496658Y-90603528D01*
X79604407Y-90603528D01*
X79712157Y-90549653D01*
X79766032Y-90495778D01*
X79819906Y-90388028D01*
X79819906Y-90334154D01*
X79631345Y-90145592D01*
X79523595Y-90253341D01*
X80116218Y-90145592D02*
X79550532Y-89579906D01*
X79766032Y-89364407D01*
X79846844Y-89337470D01*
X79900719Y-89337470D01*
X79981531Y-89364407D01*
X80062343Y-89445219D01*
X80089280Y-89526032D01*
X80089280Y-89579906D01*
X80062343Y-89660719D01*
X79846844Y-89876218D01*
X80062343Y-89068096D02*
X80439467Y-88690972D01*
X80762715Y-89499094D01*
X104781158Y-72153155D02*
X104700346Y-72180093D01*
X104619534Y-72260905D01*
X104565659Y-72368654D01*
X104565659Y-72476404D01*
X104592597Y-72557216D01*
X104673409Y-72691903D01*
X104754221Y-72772715D01*
X104888908Y-72853528D01*
X104969720Y-72880465D01*
X105077470Y-72880465D01*
X105185219Y-72826590D01*
X105239094Y-72772715D01*
X105292969Y-72664966D01*
X105292969Y-72611091D01*
X105104407Y-72422529D01*
X104996658Y-72530279D01*
X105589280Y-72422529D02*
X105023595Y-71856844D01*
X105912529Y-72099280D01*
X105346844Y-71533595D01*
X106181903Y-71829906D02*
X105616218Y-71264221D01*
X105750905Y-71129534D01*
X105858654Y-71075659D01*
X105966404Y-71075659D01*
X106047216Y-71102597D01*
X106181903Y-71183409D01*
X106262715Y-71264221D01*
X106343528Y-71398908D01*
X106370465Y-71479720D01*
X106370465Y-71587470D01*
X106316590Y-71695219D01*
X106181903Y-71829906D01*
X104792722Y-102875592D02*
X104711910Y-102902529D01*
X104631097Y-102983341D01*
X104577223Y-103091091D01*
X104577223Y-103198841D01*
X104604160Y-103279653D01*
X104684972Y-103414340D01*
X104765784Y-103495152D01*
X104900471Y-103575964D01*
X104981284Y-103602902D01*
X105089033Y-103602902D01*
X105196783Y-103549027D01*
X105250658Y-103495152D01*
X105304532Y-103387402D01*
X105304532Y-103333528D01*
X105115971Y-103144966D01*
X105008221Y-103252715D01*
X105600844Y-103144966D02*
X105035158Y-102579280D01*
X105250658Y-102363781D01*
X105331470Y-102336844D01*
X105385345Y-102336844D01*
X105466157Y-102363781D01*
X105546969Y-102444593D01*
X105573906Y-102525406D01*
X105573906Y-102579280D01*
X105546969Y-102660093D01*
X105331470Y-102875592D01*
X105627781Y-102094407D02*
X105627781Y-102040532D01*
X105654719Y-101959720D01*
X105789406Y-101825033D01*
X105870218Y-101798096D01*
X105924093Y-101798096D01*
X106004905Y-101825033D01*
X106058780Y-101878908D01*
X106112654Y-101986658D01*
X106112654Y-102633155D01*
X106462841Y-102282969D01*
X106247341Y-101367097D02*
X106301216Y-101313223D01*
X106382028Y-101286285D01*
X106435903Y-101286285D01*
X106516715Y-101313223D01*
X106651402Y-101394035D01*
X106786089Y-101528722D01*
X106866902Y-101663409D01*
X106893839Y-101744221D01*
X106893839Y-101798096D01*
X106866902Y-101878908D01*
X106813027Y-101932783D01*
X106732215Y-101959720D01*
X106678340Y-101959720D01*
X106597528Y-101932783D01*
X106462841Y-101851971D01*
X106328154Y-101717284D01*
X106247341Y-101582597D01*
X106220404Y-101501784D01*
X106220404Y-101447910D01*
X106247341Y-101367097D01*
X79208096Y-77206218D02*
X79127284Y-77233155D01*
X79046471Y-77313967D01*
X78992597Y-77421717D01*
X78992597Y-77529467D01*
X79019534Y-77610279D01*
X79100346Y-77744966D01*
X79181158Y-77825778D01*
X79315845Y-77906590D01*
X79396658Y-77933528D01*
X79504407Y-77933528D01*
X79612157Y-77879653D01*
X79666032Y-77825778D01*
X79719906Y-77718028D01*
X79719906Y-77664154D01*
X79531345Y-77475592D01*
X79423595Y-77583341D01*
X80016218Y-77475592D02*
X79450532Y-76909906D01*
X79666032Y-76694407D01*
X79746844Y-76667470D01*
X79800719Y-76667470D01*
X79881531Y-76694407D01*
X79962343Y-76775219D01*
X79989280Y-76856032D01*
X79989280Y-76909906D01*
X79962343Y-76990719D01*
X79746844Y-77206218D01*
X79962343Y-76398096D02*
X80312529Y-76047910D01*
X80339467Y-76451971D01*
X80420279Y-76371158D01*
X80501091Y-76344221D01*
X80554966Y-76344221D01*
X80635778Y-76371158D01*
X80770465Y-76505845D01*
X80797402Y-76586658D01*
X80797402Y-76640532D01*
X80770465Y-76721345D01*
X80608841Y-76882969D01*
X80528028Y-76909906D01*
X80474154Y-76909906D01*
%TO.C,D1*%
X138861904Y-65852380D02*
X138861904Y-64852380D01*
X139100000Y-64852380D01*
X139242857Y-64900000D01*
X139338095Y-64995238D01*
X139385714Y-65090476D01*
X139433333Y-65280952D01*
X139433333Y-65423809D01*
X139385714Y-65614285D01*
X139338095Y-65709523D01*
X139242857Y-65804761D01*
X139100000Y-65852380D01*
X138861904Y-65852380D01*
X140385714Y-65852380D02*
X139814285Y-65852380D01*
X140100000Y-65852380D02*
X140100000Y-64852380D01*
X140004761Y-64995238D01*
X139909523Y-65090476D01*
X139814285Y-65138095D01*
%TO.C,SW5*%
X151104761Y-78133333D02*
X151152380Y-77990476D01*
X151152380Y-77752380D01*
X151104761Y-77657142D01*
X151057142Y-77609523D01*
X150961904Y-77561904D01*
X150866666Y-77561904D01*
X150771428Y-77609523D01*
X150723809Y-77657142D01*
X150676190Y-77752380D01*
X150628571Y-77942857D01*
X150580952Y-78038095D01*
X150533333Y-78085714D01*
X150438095Y-78133333D01*
X150342857Y-78133333D01*
X150247619Y-78085714D01*
X150200000Y-78038095D01*
X150152380Y-77942857D01*
X150152380Y-77704761D01*
X150200000Y-77561904D01*
X150152380Y-77228571D02*
X151152380Y-76990476D01*
X150438095Y-76800000D01*
X151152380Y-76609523D01*
X150152380Y-76371428D01*
X150152380Y-75514285D02*
X150152380Y-75990476D01*
X150628571Y-76038095D01*
X150580952Y-75990476D01*
X150533333Y-75895238D01*
X150533333Y-75657142D01*
X150580952Y-75561904D01*
X150628571Y-75514285D01*
X150723809Y-75466666D01*
X150961904Y-75466666D01*
X151057142Y-75514285D01*
X151104761Y-75561904D01*
X151152380Y-75657142D01*
X151152380Y-75895238D01*
X151104761Y-75990476D01*
X151057142Y-76038095D01*
%TO.C,D2*%
X127061904Y-65852380D02*
X127061904Y-64852380D01*
X127300000Y-64852380D01*
X127442857Y-64900000D01*
X127538095Y-64995238D01*
X127585714Y-65090476D01*
X127633333Y-65280952D01*
X127633333Y-65423809D01*
X127585714Y-65614285D01*
X127538095Y-65709523D01*
X127442857Y-65804761D01*
X127300000Y-65852380D01*
X127061904Y-65852380D01*
X128014285Y-64947619D02*
X128061904Y-64900000D01*
X128157142Y-64852380D01*
X128395238Y-64852380D01*
X128490476Y-64900000D01*
X128538095Y-64947619D01*
X128585714Y-65042857D01*
X128585714Y-65138095D01*
X128538095Y-65280952D01*
X127966666Y-65852380D01*
X128585714Y-65852380D01*
D12*
%TO.C,SW3*%
X117800000Y-117150000D02*
X115200000Y-117150000D01*
X117000000Y-111050000D02*
X116000000Y-111050000D01*
X122400000Y-104950000D02*
X110600000Y-104950000D01*
X116500000Y-110550000D02*
X116500000Y-111550000D01*
X113000000Y-117150000D02*
X110600000Y-117150000D01*
X120300000Y-103550000D02*
X120600000Y-103250000D01*
X122400000Y-109050000D02*
X122400000Y-104950000D01*
X110600000Y-109050000D02*
X110600000Y-104950000D01*
X122400000Y-117150000D02*
X120000000Y-117150000D01*
X122400000Y-113050000D02*
X122400000Y-117150000D01*
X120600000Y-103250000D02*
X120600000Y-103850000D01*
X120600000Y-103850000D02*
X120300000Y-103550000D01*
X110600000Y-117150000D02*
X110600000Y-113050000D01*
X119500000Y-111050000D02*
G75*
G03*
X119500000Y-111050000I-3000000J0D01*
G01*
%TO.C,SW1*%
X164500000Y-103900000D02*
X164200000Y-103600000D01*
X160900000Y-111100000D02*
X159900000Y-111100000D01*
X164200000Y-103600000D02*
X164500000Y-103300000D01*
X161700000Y-117200000D02*
X159100000Y-117200000D01*
X154500000Y-117200000D02*
X154500000Y-113100000D01*
X154500000Y-109100000D02*
X154500000Y-105000000D01*
X156900000Y-117200000D02*
X154500000Y-117200000D01*
X166300000Y-109100000D02*
X166300000Y-105000000D01*
X166300000Y-113100000D02*
X166300000Y-117200000D01*
X160400000Y-110600000D02*
X160400000Y-111600000D01*
X166300000Y-105000000D02*
X154500000Y-105000000D01*
X164500000Y-103300000D02*
X164500000Y-103900000D01*
X166300000Y-117200000D02*
X163900000Y-117200000D01*
X163400000Y-111100000D02*
G75*
G03*
X163400000Y-111100000I-3000000J0D01*
G01*
%TO.C,U2*%
X111590000Y-75478000D02*
X144610000Y-75478000D01*
X144610000Y-75478000D02*
X144610000Y-97322000D01*
X144610000Y-97322000D02*
X111590000Y-97322000D01*
X111590000Y-97322000D02*
X111590000Y-75478000D01*
%TO.C,J1*%
X162150000Y-65990000D02*
X162150000Y-68610000D01*
X164710000Y-68610000D02*
X163400000Y-68610000D01*
X162150000Y-68610000D02*
X154590000Y-68610000D01*
X164710000Y-67300000D02*
X164710000Y-68610000D01*
X162150000Y-65990000D02*
X154590000Y-65990000D01*
X154590000Y-65990000D02*
X154590000Y-68610000D01*
%TO.C,SW2*%
X132500000Y-109100000D02*
X132500000Y-105000000D01*
X142500000Y-103900000D02*
X142200000Y-103600000D01*
X132500000Y-117200000D02*
X132500000Y-113100000D01*
X138900000Y-111100000D02*
X137900000Y-111100000D01*
X138400000Y-110600000D02*
X138400000Y-111600000D01*
X144300000Y-105000000D02*
X132500000Y-105000000D01*
X144300000Y-117200000D02*
X141900000Y-117200000D01*
X142500000Y-103300000D02*
X142500000Y-103900000D01*
X139700000Y-117200000D02*
X137100000Y-117200000D01*
X134900000Y-117200000D02*
X132500000Y-117200000D01*
X142200000Y-103600000D02*
X142500000Y-103300000D01*
X144300000Y-109100000D02*
X144300000Y-105000000D01*
X144300000Y-113100000D02*
X144300000Y-117200000D01*
X141400000Y-111100000D02*
G75*
G03*
X141400000Y-111100000I-3000000J0D01*
G01*
%TO.C,D3*%
X112650000Y-67300000D02*
X112650000Y-66150000D01*
X112650000Y-66150000D02*
X119950000Y-66150000D01*
X112650000Y-71650000D02*
X119950000Y-71650000D01*
%TO.C,SW4*%
X153460000Y-87970000D02*
X153460000Y-85250000D01*
X165760000Y-94830000D02*
X165760000Y-97550000D01*
X153460000Y-97550000D02*
X153460000Y-94830000D01*
X153460000Y-85250000D02*
X165760000Y-85250000D01*
X165760000Y-89830000D02*
X165760000Y-92970000D01*
X153460000Y-92970000D02*
X153460000Y-89830000D01*
X165760000Y-85250000D02*
X165760000Y-87970000D01*
X165760000Y-97550000D02*
X153460000Y-97550000D01*
X164289050Y-91440000D02*
G75*
G03*
X164289050Y-91440000I-4579050J0D01*
G01*
%TO.C,U1*%
X82195000Y-70555000D02*
X82195000Y-70955000D01*
X103195000Y-85755000D02*
X103195000Y-86155000D01*
X103195000Y-101055000D02*
X103195000Y-101455000D01*
X103195000Y-106155000D02*
X103195000Y-106555000D01*
X82195000Y-68222000D02*
X85202000Y-68222000D01*
X103195000Y-116555000D02*
X96395000Y-116555000D01*
X82195000Y-95955000D02*
X82195000Y-96355000D01*
X103195000Y-65555000D02*
X103195000Y-65855000D01*
X82195000Y-80655000D02*
X82195000Y-81055000D01*
X103195000Y-88355000D02*
X103195000Y-88755000D01*
X82195000Y-103555000D02*
X82195000Y-103955000D01*
X103195000Y-111155000D02*
X103195000Y-111555000D01*
X82195000Y-75655000D02*
X82195000Y-76055000D01*
X82195000Y-98455000D02*
X82195000Y-98855000D01*
X103195000Y-67955000D02*
X103195000Y-68355000D01*
X103195000Y-75655000D02*
X103195000Y-76055000D01*
X103195000Y-73055000D02*
X103195000Y-73455000D01*
X103195000Y-108655000D02*
X103195000Y-109055000D01*
X103195000Y-78155000D02*
X103195000Y-78555000D01*
X82195000Y-106155000D02*
X82195000Y-106555000D01*
X103195000Y-90855000D02*
X103195000Y-91255000D01*
X82195000Y-90855000D02*
X82195000Y-91255000D01*
X103195000Y-95955000D02*
X103195000Y-96355000D01*
X82195000Y-108655000D02*
X82195000Y-109055000D01*
X88995000Y-116555000D02*
X82195000Y-116555000D01*
X82195000Y-67955000D02*
X82195000Y-68355000D01*
X82195000Y-93355000D02*
X82195000Y-93755000D01*
X103195000Y-103555000D02*
X103195000Y-103955000D01*
X91195000Y-116555000D02*
X91595000Y-116555000D01*
X93795000Y-116555000D02*
X94195000Y-116555000D01*
X82195000Y-85755000D02*
X82195000Y-86155000D01*
X85202000Y-68222000D02*
X85202000Y-65555000D01*
X82195000Y-65555000D02*
X103195000Y-65555000D01*
X103195000Y-93355000D02*
X103195000Y-93755000D01*
X82195000Y-83255000D02*
X82195000Y-83655000D01*
X82195000Y-73055000D02*
X82195000Y-73455000D01*
X103195000Y-70555000D02*
X103195000Y-70955000D01*
X82195000Y-101055000D02*
X82195000Y-101455000D01*
X82195000Y-113755000D02*
X82195000Y-114155000D01*
X103195000Y-80655000D02*
X103195000Y-81055000D01*
X103195000Y-98455000D02*
X103195000Y-98855000D01*
X82195000Y-88355000D02*
X82195000Y-88755000D01*
X82195000Y-78155000D02*
X82195000Y-78555000D01*
X82195000Y-111155000D02*
X82195000Y-111555000D01*
X103195000Y-113755000D02*
X103195000Y-114155000D01*
X103195000Y-83255000D02*
X103195000Y-83655000D01*
X82195000Y-65555000D02*
X82195000Y-65855000D01*
%TO.C,D1*%
X135950000Y-67300000D02*
X135950000Y-66150000D01*
X135950000Y-71650000D02*
X143250000Y-71650000D01*
X135950000Y-66150000D02*
X143250000Y-66150000D01*
%TO.C,SW5*%
X153460000Y-73370000D02*
X153460000Y-70650000D01*
X165760000Y-70650000D02*
X165760000Y-73370000D01*
X165760000Y-82950000D02*
X153460000Y-82950000D01*
X153460000Y-82950000D02*
X153460000Y-80230000D01*
X153460000Y-78370000D02*
X153460000Y-75230000D01*
X165760000Y-80230000D02*
X165760000Y-82950000D01*
X165760000Y-75230000D02*
X165760000Y-78370000D01*
X153460000Y-70650000D02*
X165760000Y-70650000D01*
X164289050Y-76840000D02*
G75*
G03*
X164289050Y-76840000I-4579050J0D01*
G01*
%TO.C,D2*%
X124150000Y-71650000D02*
X131450000Y-71650000D01*
X124150000Y-66150000D02*
X131450000Y-66150000D01*
X124150000Y-67300000D02*
X124150000Y-66150000D01*
%TD*%
M02*
