M48
; DRILL file {KiCad (6.0.7-1)-1} date Thursday, September 01, 2022 at 12:31:19 PM
; FORMAT={-:-/ absolute / inch / decimal}
; #@! TF.CreationDate,2022-09-01T12:31:19-04:00
; #@! TF.GenerationSoftware,Kicad,Pcbnew,(6.0.7-1)-1
; #@! TF.FileFunction,Plated,1,2,PTH
FMAT,2
INCH
; #@! TA.AperFunction,Plated,PTH,ViaDrill
T1C0.0157
; #@! TA.AperFunction,Plated,PTH,ComponentDrill
T2C0.0300
; #@! TA.AperFunction,Plated,PTH,ComponentDrill
T3C0.0354
; #@! TA.AperFunction,Plated,PTH,ComponentDrill
T4C0.0394
; #@! TA.AperFunction,Plated,PTH,ComponentDrill
T5C0.0402
; #@! TA.AperFunction,Plated,PTH,ComponentDrill
T6C0.0512
; #@! TA.AperFunction,Plated,PTH,ComponentDrill
T7C0.0591
; #@! TA.AperFunction,Plated,PTH,ComponentDrill
T8C0.1000
%
G90
G05
T1
X3.4252Y-3.1929
X3.437Y-2.9882
X3.4488Y-4.0827
X3.6732Y-4.3386
X3.8031Y-3.3189
X3.811Y-3.0039
X3.8622Y-4.2205
X4.1614Y-4.3386
X4.1654Y-2.9409
X4.2126Y-4.0669
X4.2205Y-3.9803
X4.252Y-4.4213
X4.2874Y-4.1535
X4.2913Y-3.7165
X4.3976Y-2.7205
X4.4331Y-3.8504
X4.563Y-4.2874
X4.5709Y-2.7756
X4.6654Y-3.7283
X4.7402Y-2.6496
X4.7421Y-2.7697
X5.0Y-2.748
X5.1929Y-2.6496
X5.1929Y-2.7126
X5.4646Y-2.7559
X5.5374Y-2.7579
X5.6575Y-2.6496
T2
X4.7933Y-3.7266
X4.8933Y-3.7266
X4.9933Y-3.7266
X5.0933Y-3.7266
X5.1933Y-3.7266
X5.2933Y-3.7266
T3
X6.1378Y-2.6496
X6.2362Y-2.6496
X6.3346Y-2.6496
X6.4331Y-2.6496
T4
X4.4882Y-4.0768
X4.4882Y-4.6476
X4.5866Y-4.0768
X4.685Y-4.0768
X4.685Y-4.6476
X5.3504Y-4.0787
X5.3504Y-4.6496
X5.4488Y-4.0787
X5.5472Y-4.0787
X5.5472Y-4.6496
X6.2165Y-4.0787
X6.2165Y-4.6496
X6.315Y-4.0787
X6.4134Y-4.0787
X6.4134Y-4.6496
T5
X3.2994Y-2.6348
X3.2994Y-2.7348
X3.2994Y-2.8348
X3.2994Y-2.9348
X3.2994Y-3.0348
X3.2994Y-3.1348
X3.2994Y-3.2348
X3.2994Y-3.3348
X3.2994Y-3.4348
X3.2994Y-3.5348
X3.2994Y-3.6348
X3.2994Y-3.7348
X3.2994Y-3.8348
X3.2994Y-3.9348
X3.2994Y-4.0348
X3.2994Y-4.1348
X3.2994Y-4.2348
X3.2994Y-4.3348
X3.2994Y-4.4348
X3.2994Y-4.5348
X3.5494Y-4.5258
X3.6494Y-4.5258
X3.7494Y-4.5258
X3.9994Y-2.6348
X3.9994Y-2.7348
X3.9994Y-2.8348
X3.9994Y-2.9348
X3.9994Y-3.0348
X3.9994Y-3.1348
X3.9994Y-3.2348
X3.9994Y-3.3348
X3.9994Y-3.4348
X3.9994Y-3.5348
X3.9994Y-3.6348
X3.9994Y-3.7348
X3.9994Y-3.8348
X3.9994Y-3.9348
X3.9994Y-4.0348
X3.9994Y-4.1348
X3.9994Y-4.2348
X3.9994Y-4.3348
X3.9994Y-4.4348
X3.9994Y-4.5348
T6
X6.0378Y-2.9252
X6.0378Y-3.122
X6.0378Y-3.5
X6.0378Y-3.6969
X6.5299Y-2.9252
X6.5299Y-3.122
X6.5299Y-3.5
X6.5299Y-3.6969
T8
X4.4933Y-3.0766
X4.4933Y-3.7266
X5.5933Y-3.0766
X5.5933Y-3.7266
T7
G00X4.3661Y-4.3465
M15
G01X4.3661Y-4.3976
M16
G05
G00X4.8071Y-4.3465
M15
G01X4.8071Y-4.3976
M16
G05
G00X5.2283Y-4.3484
M15
G01X5.2283Y-4.3996
M16
G05
G00X5.6693Y-4.3484
M15
G01X5.6693Y-4.3996
M16
G05
G00X6.0945Y-4.3484
M15
G01X6.0945Y-4.3996
M16
G05
G00X6.5354Y-4.3484
M15
G01X6.5354Y-4.3996
M16
G05
T0
M30
