%TF.GenerationSoftware,KiCad,Pcbnew,(6.0.7-1)-1*%
%TF.CreationDate,2022-09-01T12:29:15-04:00*%
%TF.ProjectId,pico-color-picker,7069636f-2d63-46f6-9c6f-722d7069636b,rev?*%
%TF.SameCoordinates,Original*%
%TF.FileFunction,Soldermask,Bot*%
%TF.FilePolarity,Negative*%
%FSLAX46Y46*%
G04 Gerber Fmt 4.6, Leading zero omitted, Abs format (unit mm)*
G04 Created by KiCad (PCBNEW (6.0.7-1)-1) date 2022-09-01 12:29:15*
%MOMM*%
%LPD*%
G01*
G04 APERTURE LIST*
G04 Aperture macros list*
%AMRoundRect*
0 Rectangle with rounded corners*
0 $1 Rounding radius*
0 $2 $3 $4 $5 $6 $7 $8 $9 X,Y pos of 4 corners*
0 Add a 4 corners polygon primitive as box body*
4,1,4,$2,$3,$4,$5,$6,$7,$8,$9,$2,$3,0*
0 Add four circle primitives for the rounded corners*
1,1,$1+$1,$2,$3*
1,1,$1+$1,$4,$5*
1,1,$1+$1,$6,$7*
1,1,$1+$1,$8,$9*
0 Add four rect primitives between the rounded corners*
20,1,$1+$1,$2,$3,$4,$5,0*
20,1,$1+$1,$4,$5,$6,$7,0*
20,1,$1+$1,$6,$7,$8,$9,0*
20,1,$1+$1,$8,$9,$2,$3,0*%
G04 Aperture macros list end*
%ADD10R,2.000000X2.000000*%
%ADD11C,2.000000*%
%ADD12R,2.000000X3.200000*%
%ADD13C,1.524000*%
%ADD14C,4.064000*%
%ADD15R,1.350000X1.350000*%
%ADD16C,1.350000*%
%ADD17O,3.048000X1.850000*%
%ADD18O,1.500000X1.500000*%
%ADD19O,1.800000X1.800000*%
%ADD20O,1.700000X1.700000*%
%ADD21R,1.700000X1.700000*%
%ADD22RoundRect,0.100000X-0.100000X0.130000X-0.100000X-0.130000X0.100000X-0.130000X0.100000X0.130000X0*%
%ADD23RoundRect,0.135000X0.135000X0.185000X-0.135000X0.185000X-0.135000X-0.185000X0.135000X-0.185000X0*%
G04 APERTURE END LIST*
D10*
%TO.C,SW3*%
X119000000Y-103550000D03*
D11*
X114000000Y-103550000D03*
X116500000Y-103550000D03*
D12*
X122100000Y-111050000D03*
X110900000Y-111050000D03*
D11*
X114000000Y-118050000D03*
X119000000Y-118050000D03*
%TD*%
D10*
%TO.C,SW1*%
X162900000Y-103600000D03*
D11*
X157900000Y-103600000D03*
X160400000Y-103600000D03*
D12*
X166000000Y-111100000D03*
X154800000Y-111100000D03*
D11*
X157900000Y-118100000D03*
X162900000Y-118100000D03*
%TD*%
D13*
%TO.C,U2*%
X121750000Y-94655000D03*
X124290000Y-94655000D03*
X126830000Y-94655000D03*
X129370000Y-94655000D03*
X131910000Y-94655000D03*
X134450000Y-94655000D03*
D14*
X114130000Y-78145000D03*
X142070000Y-78145000D03*
X114130000Y-94655000D03*
X142070000Y-94655000D03*
%TD*%
D15*
%TO.C,J1*%
X163400000Y-67300000D03*
D16*
X160900000Y-67300000D03*
X158400000Y-67300000D03*
X155900000Y-67300000D03*
%TD*%
D10*
%TO.C,SW2*%
X140900000Y-103600000D03*
D11*
X135900000Y-103600000D03*
X138400000Y-103600000D03*
D12*
X144000000Y-111100000D03*
X132800000Y-111100000D03*
D11*
X135900000Y-118100000D03*
X140900000Y-118100000D03*
%TD*%
D17*
%TO.C,SW4*%
X165860000Y-88900000D03*
X153360000Y-88900000D03*
X153360000Y-93900000D03*
X165860000Y-93900000D03*
%TD*%
D18*
%TO.C,U1*%
X90270000Y-70085000D03*
D19*
X95420000Y-67055000D03*
X89970000Y-67055000D03*
D18*
X95120000Y-70085000D03*
D20*
X83805000Y-66925000D03*
X83805000Y-69465000D03*
D21*
X83805000Y-72005000D03*
D20*
X83805000Y-74545000D03*
X83805000Y-77085000D03*
X83805000Y-79625000D03*
X83805000Y-82165000D03*
D21*
X83805000Y-84705000D03*
D20*
X83805000Y-87245000D03*
X83805000Y-89785000D03*
X83805000Y-92325000D03*
X83805000Y-94865000D03*
D21*
X83805000Y-97405000D03*
D20*
X83805000Y-99945000D03*
X83805000Y-102485000D03*
X83805000Y-105025000D03*
X83805000Y-107565000D03*
D21*
X83805000Y-110105000D03*
D20*
X83805000Y-112645000D03*
X83805000Y-115185000D03*
X101585000Y-115185000D03*
X101585000Y-112645000D03*
D21*
X101585000Y-110105000D03*
D20*
X101585000Y-107565000D03*
X101585000Y-105025000D03*
X101585000Y-102485000D03*
X101585000Y-99945000D03*
D21*
X101585000Y-97405000D03*
D20*
X101585000Y-94865000D03*
X101585000Y-92325000D03*
X101585000Y-89785000D03*
X101585000Y-87245000D03*
D21*
X101585000Y-84705000D03*
D20*
X101585000Y-82165000D03*
X101585000Y-79625000D03*
X101585000Y-77085000D03*
X101585000Y-74545000D03*
D21*
X101585000Y-72005000D03*
D20*
X101585000Y-69465000D03*
X101585000Y-66925000D03*
X90155000Y-114955000D03*
D21*
X92695000Y-114955000D03*
D20*
X95235000Y-114955000D03*
%TD*%
D17*
%TO.C,SW5*%
X165860000Y-74300000D03*
X153360000Y-74300000D03*
X153360000Y-79300000D03*
X165860000Y-79300000D03*
%TD*%
D22*
%TO.C,C3*%
X116100000Y-68780000D03*
X116100000Y-69420000D03*
%TD*%
%TO.C,C1*%
X138800000Y-68380000D03*
X138800000Y-69020000D03*
%TD*%
D23*
%TO.C,R1*%
X140910000Y-69000000D03*
X139890000Y-69000000D03*
%TD*%
%TO.C,R2*%
X129810000Y-68800000D03*
X128790000Y-68800000D03*
%TD*%
%TO.C,R3*%
X118510000Y-69400000D03*
X117490000Y-69400000D03*
%TD*%
D22*
%TO.C,C2*%
X127000000Y-68180000D03*
X127000000Y-68820000D03*
%TD*%
M02*
